<svg width="246" height="50" viewBox="0 0 246 50" fill="none" xmlns="http://www.w3.org/2000/svg">
<path d="M240.927 0.374161H4.99876C2.65102 0.374161 0.747803 2.27844 0.747803 4.62748V45.034C0.747803 47.3831 2.65102 49.2874 4.99876 49.2874H240.927C243.275 49.2874 245.178 47.3831 245.178 45.034V4.62748C245.178 2.27844 243.275 0.374161 240.927 0.374161Z" fill="#03A9F4"/>
<path d="M85.2609 28.1721C85.2609 24.1081 79.3729 25.6761 79.3729 23.1641C79.3729 22.0921 80.1889 21.5801 81.2449 21.6121C82.3969 21.6441 83.0529 22.3321 83.1169 23.0841H85.1329C84.9729 21.1801 83.4689 20.0601 81.3409 20.0601C79.0689 20.0601 77.5169 21.2761 77.5169 23.2281C77.5169 27.3241 83.4209 25.5801 83.4209 28.2681C83.4209 29.2121 82.7009 29.9001 81.4209 29.9001C80.1569 29.9001 79.5169 29.1641 79.4369 28.2521H77.4849C77.4849 30.2201 79.1969 31.4361 81.4209 31.4361C83.9009 31.4361 85.2609 29.8361 85.2609 28.1721ZM87.4131 31.3241H89.2371V26.3961C89.2371 24.7801 90.1171 23.9481 91.4611 23.9481C92.7891 23.9481 93.6691 24.7801 93.6691 26.3961V31.3241H95.4771V26.1241C95.4771 23.6601 93.9411 22.3641 91.9731 22.3641C90.8371 22.3641 89.8451 22.7961 89.2371 23.5321V19.4841H87.4131V31.3241ZM97.1958 26.8761C97.1958 29.5961 99.0358 31.4681 101.324 31.4681C102.796 31.4681 103.852 30.7641 104.412 30.0121V31.3241H106.252V22.5081H104.412V23.7881C103.868 23.0681 102.844 22.3641 101.356 22.3641C99.0358 22.3641 97.1958 24.1561 97.1958 26.8761ZM104.412 26.9081C104.412 28.8121 103.116 29.8841 101.74 29.8841C100.38 29.8841 99.0678 28.7801 99.0678 26.8761C99.0678 24.9721 100.38 23.9481 101.74 23.9481C103.116 23.9481 104.412 25.0201 104.412 26.9081ZM110.472 26.6841C110.472 24.8121 111.304 24.2521 112.648 24.2521H113.112V22.3641C111.864 22.3641 110.984 22.9081 110.472 23.7881V22.5081H108.648V31.3241H110.472V26.6841ZM118.5 23.9001C119.86 23.9001 120.932 24.7641 120.964 26.1241H116.084C116.276 24.7321 117.268 23.9001 118.5 23.9001ZM122.628 28.7001H120.66C120.324 29.3881 119.7 29.9321 118.58 29.9321C117.236 29.9321 116.196 29.0521 116.068 27.5961H122.804C122.852 27.2921 122.868 27.0041 122.868 26.7001C122.868 24.1081 121.092 22.3641 118.58 22.3641C115.972 22.3641 114.18 24.1401 114.18 26.9081C114.18 29.6761 116.052 31.4681 118.58 31.4681C120.74 31.4681 122.132 30.2361 122.628 28.7001ZM137.219 26.9081C137.219 24.1401 135.235 22.3641 132.723 22.3641C130.211 22.3641 128.227 24.1401 128.227 26.9081C128.227 29.6761 130.131 31.4681 132.643 31.4681C135.171 31.4681 137.219 29.6761 137.219 26.9081ZM130.083 26.9081C130.083 24.9081 131.315 23.9481 132.691 23.9481C134.051 23.9481 135.347 24.9081 135.347 26.9081C135.347 28.9081 134.003 29.8841 132.643 29.8841C131.267 29.8841 130.083 28.9081 130.083 26.9081ZM145.279 31.3241H147.087V26.1241C147.087 23.6601 145.535 22.3641 143.471 22.3641C142.415 22.3641 141.439 22.7961 140.847 23.5161V22.5081H139.023V31.3241H140.847V26.3961C140.847 24.7801 141.727 23.9481 143.071 23.9481C144.399 23.9481 145.279 24.7801 145.279 26.3961V31.3241ZM152.993 21.6921H155.969V31.3241H157.793V21.6921H160.753V20.2041H152.993V21.6921ZM164.313 31.3241H166.233L168.009 24.8121L169.785 31.3241H171.705L174.441 22.5081H172.649L170.825 29.5641L169.033 22.5081H167.129L165.257 29.5961L163.417 22.5081H161.561L164.313 31.3241ZM175.804 31.3241H177.628V22.5081H175.804V31.3241ZM176.732 21.3401C177.372 21.3401 177.884 20.8281 177.884 20.1721C177.884 19.5161 177.372 19.0041 176.732 19.0041C176.076 19.0041 175.564 19.5161 175.564 20.1721C175.564 20.8281 176.076 21.3401 176.732 21.3401ZM180.311 28.8761C180.311 30.6681 181.287 31.3241 182.855 31.3241H184.295V29.8041H183.175C182.407 29.8041 182.151 29.5321 182.151 28.8761V23.9961H184.295V22.5081H182.151V20.3161H180.311V22.5081H179.271V23.9961H180.311V28.8761ZM186.264 28.8761C186.264 30.6681 187.24 31.3241 188.808 31.3241H190.248V29.8041H189.128C188.36 29.8041 188.104 29.5321 188.104 28.8761V23.9961H190.248V22.5081H188.104V20.3161H186.264V22.5081H185.224V23.9961H186.264V28.8761ZM195.641 23.9001C197.001 23.9001 198.073 24.7641 198.105 26.1241H193.225C193.417 24.7321 194.409 23.9001 195.641 23.9001ZM199.769 28.7001H197.801C197.465 29.3881 196.841 29.9321 195.721 29.9321C194.377 29.9321 193.337 29.0521 193.209 27.5961H199.945C199.993 27.2921 200.009 27.0041 200.009 26.7001C200.009 24.1081 198.233 22.3641 195.721 22.3641C193.113 22.3641 191.321 24.1401 191.321 26.9081C191.321 29.6761 193.193 31.4681 195.721 31.4681C197.881 31.4681 199.273 30.2361 199.769 28.7001ZM203.628 26.6841C203.628 24.8121 204.46 24.2521 205.804 24.2521H206.268V22.3641C205.02 22.3641 204.14 22.9081 203.628 23.7881V22.5081H201.804V31.3241H203.628V26.6841Z" fill="white"/>
<path d="M62.362 20.5389C61.7121 20.7943 61.0247 20.964 60.3211 21.043C61.0629 20.6469 61.6176 20.0196 61.8801 19.28C61.1863 19.6504 60.4274 19.9115 59.636 20.0519C59.1504 19.584 58.5196 19.2586 57.8257 19.1178C57.1318 18.9771 56.4069 19.0277 55.7454 19.263C55.0838 19.4983 54.5162 19.9073 54.1165 20.437C53.7167 20.9667 53.5033 21.5924 53.5039 22.2328C53.5013 22.4773 53.5291 22.7212 53.5866 22.9601C52.1771 22.8978 50.7981 22.5684 49.5398 21.9935C48.2814 21.4185 47.172 20.6109 46.284 19.6234C45.828 20.3251 45.6868 21.1571 45.8892 21.9494C46.0916 22.7416 46.6223 23.4345 47.373 23.8863C46.8123 23.8729 46.2634 23.7383 45.7726 23.4939V23.529C45.7734 24.2651 46.0556 24.9786 46.5718 25.5494C47.088 26.1203 47.8067 26.5137 48.6072 26.6637C48.304 26.7361 47.9914 26.7719 47.6777 26.77C47.4526 26.7737 47.2277 26.7555 47.0069 26.7158C47.2355 27.3484 47.6762 27.9018 48.2684 28.2997C48.8606 28.6977 49.5752 28.9207 50.3139 28.9382C49.0612 29.8193 47.517 30.2977 45.9274 30.2971C45.6439 30.2989 45.3607 30.2843 45.0793 30.2535C46.6988 31.1929 48.5858 31.69 50.5123 31.6847C51.8389 31.6931 53.1542 31.464 54.3816 31.0108C55.6091 30.5577 56.7243 29.8895 57.6625 29.045C58.6007 28.2005 59.3432 27.1966 59.8468 26.0916C60.3505 24.9866 60.6052 23.8026 60.5963 22.6082C60.5963 22.4668 60.5963 22.3307 60.5833 22.1956C61.2832 21.7454 61.886 21.184 62.362 20.5389Z" fill="white"/>
</svg>
