<svg width="124" height="50" viewBox="0 0 124 50" fill="none" xmlns="http://www.w3.org/2000/svg">
<path d="M119.717 0.800995H4.94114C2.5934 0.800995 0.690186 2.70527 0.690186 5.05432V45.4609C0.690186 47.81 2.5934 49.7142 4.94114 49.7142H119.717C122.065 49.7142 123.968 47.81 123.968 45.4609V5.05432C123.968 2.70527 122.065 0.800995 119.717 0.800995Z" fill="#F6F7F8"/>
<path d="M65.5221 27.561V26.377H60.2901C63.2661 24.025 65.4741 22.041 65.4741 19.865C65.4741 17.737 63.6661 16.729 61.8901 16.729C60.3861 16.729 58.9941 17.337 58.1781 18.409L58.9941 19.257C59.6181 18.457 60.6101 17.913 61.8901 17.913C62.9941 17.913 64.1141 18.505 64.1141 19.865C64.1141 21.705 62.0341 23.481 58.1941 26.505V27.561H65.5221Z" fill="#262626"/>
<path d="M105.901 24.1943H97.3994V26.3209H105.901V24.1943Z" fill="#33A0FF"/>
<path d="M102.713 29.5109V21.0043H100.588V29.5109H102.713Z" fill="#33A0FF"/>
<path d="M27.2588 24.1943H18.7568V26.3209H27.2588V24.1943Z" fill="#33A0FF"/>
</svg>
