<svg width="246" height="50" viewBox="0 0 246 50" fill="none" xmlns="http://www.w3.org/2000/svg">
<path d="M240.869 0.374146H4.94115C2.59341 0.374146 0.690186 2.27842 0.690186 4.62747V45.034C0.690186 47.3831 2.59341 49.2874 4.94115 49.2874H240.869C243.217 49.2874 245.12 47.3831 245.12 45.034V4.62747C245.12 2.27842 243.217 0.374146 240.869 0.374146Z" fill="#385C8E"/>
<path d="M35.3335 24.8924H37.0956V32.1529C37.0956 32.2217 37.1229 32.2877 37.1715 32.3363C37.2202 32.385 37.2861 32.4123 37.3549 32.4123H40.3433C40.4121 32.4123 40.478 32.385 40.5267 32.3363C40.5753 32.2877 40.6026 32.2217 40.6026 32.1529V24.9265H42.6293C42.6928 24.9264 42.7541 24.9029 42.8015 24.8606C42.8489 24.8182 42.8792 24.7599 42.8864 24.6968L43.1946 22.0236C43.1988 21.9873 43.1953 21.9505 43.1843 21.9156C43.1733 21.8808 43.1551 21.8486 43.1308 21.8213C43.1065 21.794 43.0767 21.7722 43.0434 21.7572C43.0101 21.7422 42.974 21.7344 42.9374 21.7343H40.5994V20.0596C40.5994 19.5545 40.8715 19.2982 41.4071 19.2982H42.9332C43.002 19.2982 43.0679 19.2709 43.1166 19.2223C43.1652 19.1736 43.1925 19.1076 43.1925 19.0388V16.5857C43.1931 16.5172 43.1666 16.4513 43.1188 16.4023C43.0711 16.3534 43.0059 16.3252 42.9374 16.3241H40.8322H40.7355C39.766 16.3275 38.8303 16.6805 38.0999 17.3183C37.7552 17.6197 37.4907 18.002 37.3303 18.4309C37.1698 18.8599 37.1184 19.3219 37.1806 19.7757V21.7354H35.3303C35.2616 21.7354 35.1956 21.7627 35.147 21.8114C35.0984 21.8601 35.071 21.926 35.071 21.9949V24.633C35.071 24.6673 35.0778 24.7013 35.0911 24.733C35.1043 24.7647 35.1237 24.7934 35.1481 24.8176C35.1725 24.8417 35.2015 24.8608 35.2333 24.8736C35.2652 24.8865 35.2992 24.8929 35.3335 24.8924Z" fill="white"/>
<path d="M64.2155 29.1837C64.2155 25.1197 58.3275 26.6877 58.3275 24.1757C58.3275 23.1037 59.1435 22.5917 60.1995 22.6237C61.3515 22.6557 62.0075 23.3437 62.0715 24.0957H64.0875C63.9275 22.1917 62.4235 21.0717 60.2955 21.0717C58.0235 21.0717 56.4715 22.2877 56.4715 24.2397C56.4715 28.3357 62.3755 26.5917 62.3755 29.2797C62.3755 30.2237 61.6555 30.9117 60.3755 30.9117C59.1115 30.9117 58.4715 30.1757 58.3915 29.2637H56.4395C56.4395 31.2317 58.1515 32.4477 60.3755 32.4477C62.8555 32.4477 64.2155 30.8477 64.2155 29.1837ZM66.3677 32.3357H68.1917V27.4077C68.1917 25.7917 69.0717 24.9597 70.4157 24.9597C71.7437 24.9597 72.6237 25.7917 72.6237 27.4077V32.3357H74.4317V27.1357C74.4317 24.6717 72.8957 23.3757 70.9277 23.3757C69.7917 23.3757 68.7997 23.8077 68.1917 24.5437V20.4957H66.3677V32.3357ZM76.1503 27.8877C76.1503 30.6077 77.9903 32.4797 80.2783 32.4797C81.7503 32.4797 82.8063 31.7757 83.3664 31.0237V32.3357H85.2064V23.5197H83.3664V24.7997C82.8224 24.0797 81.7983 23.3757 80.3103 23.3757C77.9903 23.3757 76.1503 25.1677 76.1503 27.8877ZM83.3664 27.9197C83.3664 29.8237 82.0703 30.8957 80.6943 30.8957C79.3343 30.8957 78.0223 29.7917 78.0223 27.8877C78.0223 25.9837 79.3343 24.9597 80.6943 24.9597C82.0703 24.9597 83.3664 26.0317 83.3664 27.9197ZM89.4261 27.6957C89.4261 25.8237 90.2581 25.2637 91.6021 25.2637H92.0661V23.3757C90.8181 23.3757 89.9381 23.9197 89.4261 24.7997V23.5197H87.6021V32.3357H89.4261V27.6957ZM97.4547 24.9117C98.8147 24.9117 99.8867 25.7757 99.9187 27.1357H95.0387C95.2307 25.7437 96.2227 24.9117 97.4547 24.9117ZM101.583 29.7117H99.6147C99.2787 30.3997 98.6547 30.9437 97.5347 30.9437C96.1907 30.9437 95.1507 30.0637 95.0227 28.6077H101.759C101.807 28.3037 101.823 28.0157 101.823 27.7117C101.823 25.1197 100.047 23.3757 97.5347 23.3757C94.9267 23.3757 93.1347 25.1517 93.1347 27.9197C93.1347 30.6877 95.0067 32.4797 97.5347 32.4797C99.6947 32.4797 101.087 31.2477 101.583 29.7117ZM116.174 27.9197C116.174 25.1517 114.19 23.3757 111.678 23.3757C109.166 23.3757 107.182 25.1517 107.182 27.9197C107.182 30.6877 109.086 32.4797 111.598 32.4797C114.126 32.4797 116.174 30.6877 116.174 27.9197ZM109.038 27.9197C109.038 25.9197 110.27 24.9597 111.646 24.9597C113.006 24.9597 114.302 25.9197 114.302 27.9197C114.302 29.9197 112.958 30.8957 111.598 30.8957C110.222 30.8957 109.038 29.9197 109.038 27.9197ZM124.233 32.3357H126.041V27.1357C126.041 24.6717 124.489 23.3757 122.425 23.3757C121.369 23.3757 120.393 23.8077 119.801 24.5277V23.5197H117.977V32.3357H119.801V27.4077C119.801 25.7917 120.681 24.9597 122.025 24.9597C123.353 24.9597 124.233 25.7917 124.233 27.4077V32.3357ZM132.524 32.3357H134.348V27.4717H138.028V25.9837H134.348V22.7037H139.068V21.2157H132.524V32.3357ZM140.15 27.8877C140.15 30.6077 141.99 32.4797 144.278 32.4797C145.75 32.4797 146.806 31.7757 147.366 31.0237V32.3357H149.206V23.5197H147.366V24.7997C146.822 24.0797 145.798 23.3757 144.31 23.3757C141.99 23.3757 140.15 25.1677 140.15 27.8877ZM147.366 27.9197C147.366 29.8237 146.07 30.8957 144.694 30.8957C143.334 30.8957 142.022 29.7917 142.022 27.8877C142.022 25.9837 143.334 24.9597 144.694 24.9597C146.07 24.9597 147.366 26.0317 147.366 27.9197ZM150.994 27.9197C150.994 30.6877 152.786 32.4797 155.314 32.4797C157.474 32.4797 158.882 31.2797 159.378 29.5517H157.41C157.074 30.4637 156.402 30.9437 155.314 30.9437C153.842 30.9437 152.866 29.8557 152.866 27.9197C152.866 25.9997 153.842 24.9117 155.314 24.9117C156.402 24.9117 157.106 25.4557 157.41 26.3037H159.378C158.882 24.4477 157.474 23.3757 155.314 23.3757C152.786 23.3757 150.994 25.1677 150.994 27.9197ZM164.908 24.9117C166.268 24.9117 167.34 25.7757 167.372 27.1357H162.492C162.684 25.7437 163.676 24.9117 164.908 24.9117ZM169.036 29.7117H167.068C166.732 30.3997 166.108 30.9437 164.988 30.9437C163.644 30.9437 162.604 30.0637 162.476 28.6077H169.212C169.26 28.3037 169.276 28.0157 169.276 27.7117C169.276 25.1197 167.5 23.3757 164.988 23.3757C162.38 23.3757 160.588 25.1517 160.588 27.9197C160.588 30.6877 162.46 32.4797 164.988 32.4797C167.148 32.4797 168.54 31.2477 169.036 29.7117ZM172.895 24.8317V20.4957H171.071V32.3357H172.895V31.0557C173.471 31.8237 174.511 32.4797 175.967 32.4797C178.287 32.4797 180.111 30.6077 180.111 27.8877C180.111 25.1677 178.303 23.3757 175.967 23.3757C174.575 23.3757 173.471 24.0317 172.895 24.8317ZM178.255 27.8877C178.255 29.7917 176.943 30.8957 175.567 30.8957C174.207 30.8957 172.895 29.8237 172.895 27.9197C172.895 26.0317 174.207 24.9597 175.567 24.9597C176.943 24.9597 178.255 25.9837 178.255 27.8877ZM190.315 27.9197C190.315 25.1517 188.331 23.3757 185.819 23.3757C183.307 23.3757 181.323 25.1517 181.323 27.9197C181.323 30.6877 183.227 32.4797 185.739 32.4797C188.267 32.4797 190.315 30.6877 190.315 27.9197ZM183.179 27.9197C183.179 25.9197 184.411 24.9597 185.787 24.9597C187.147 24.9597 188.443 25.9197 188.443 27.9197C188.443 29.9197 187.099 30.8957 185.739 30.8957C184.363 30.8957 183.179 29.9197 183.179 27.9197ZM200.518 27.9197C200.518 25.1517 198.534 23.3757 196.022 23.3757C193.51 23.3757 191.526 25.1517 191.526 27.9197C191.526 30.6877 193.43 32.4797 195.942 32.4797C198.47 32.4797 200.518 30.6877 200.518 27.9197ZM193.382 27.9197C193.382 25.9197 194.614 24.9597 195.99 24.9597C197.35 24.9597 198.646 25.9197 198.646 27.9197C198.646 29.9197 197.302 30.8957 195.942 30.8957C194.566 30.8957 193.382 29.9197 193.382 27.9197ZM202.321 32.3357H204.145V28.5437L207.409 32.3357H209.873L205.809 27.9357L209.873 23.5197H207.345L204.145 27.3757V20.4957H202.321V32.3357Z" fill="white"/>
</svg>
