<svg width="647" height="717" viewBox="0 0 647 717" fill="none" xmlns="http://www.w3.org/2000/svg">
<path fill-rule="evenodd" clip-rule="evenodd" d="M626.223 0.625244H0.000610352V716.242H626.223V406.482C638.587 394.364 646.284 377.316 646.284 358.433C646.284 339.55 638.587 322.503 626.223 310.385V0.625244Z" fill="#40BFFF"/>
<path d="M99.104 168.865C97.408 168.865 95.856 168.529 94.448 167.857C93.04 167.153 91.824 166.209 90.8 165.025C89.808 163.841 89.024 162.481 88.448 160.945C87.904 159.409 87.632 157.793 87.632 156.097C87.632 154.305 87.92 152.625 88.496 151.057C89.072 149.489 89.872 148.113 90.896 146.929C91.952 145.713 93.184 144.769 94.592 144.097C96 143.425 97.568 143.089 99.296 143.089C101.312 143.089 103.072 143.569 104.576 144.529C106.112 145.489 107.376 146.737 108.368 148.273V143.521H113.024V167.905C113.024 170.337 112.432 172.401 111.248 174.097C110.096 175.793 108.512 177.089 106.496 177.985C104.48 178.881 102.208 179.329 99.68 179.329C96.896 179.329 94.592 178.849 92.768 177.889C90.944 176.929 89.392 175.617 88.112 173.953L91.088 171.169C92.048 172.513 93.28 173.537 94.784 174.241C96.32 174.945 97.952 175.297 99.68 175.297C101.12 175.297 102.448 175.025 103.664 174.481C104.912 173.969 105.904 173.153 106.64 172.033C107.376 170.945 107.744 169.569 107.744 167.905V164.065C106.848 165.569 105.616 166.753 104.048 167.617C102.48 168.449 100.832 168.865 99.104 168.865ZM100.832 164.593C101.632 164.593 102.4 164.465 103.136 164.209C103.872 163.921 104.544 163.553 105.152 163.105C105.792 162.625 106.336 162.097 106.784 161.521C107.232 160.913 107.552 160.273 107.744 159.601V153.025C107.328 151.937 106.736 150.993 105.968 150.193C105.2 149.361 104.336 148.721 103.376 148.273C102.416 147.825 101.44 147.601 100.448 147.601C99.296 147.601 98.256 147.857 97.328 148.369C96.432 148.849 95.664 149.505 95.024 150.337C94.384 151.137 93.888 152.049 93.536 153.073C93.184 154.097 93.008 155.153 93.008 156.241C93.008 157.393 93.2 158.465 93.584 159.457C94 160.449 94.56 161.345 95.264 162.145C95.968 162.913 96.8 163.521 97.76 163.969C98.72 164.385 99.744 164.593 100.832 164.593ZM130.732 169.105C128.78 169.105 127.004 168.769 125.404 168.097C123.836 167.393 122.476 166.449 121.324 165.265C120.172 164.049 119.276 162.673 118.636 161.137C118.028 159.569 117.724 157.905 117.724 156.145C117.724 153.777 118.268 151.617 119.355 149.665C120.444 147.681 121.964 146.097 123.916 144.913C125.868 143.697 128.156 143.089 130.78 143.089C133.404 143.089 135.66 143.697 137.548 144.913C139.468 146.097 140.956 147.665 142.012 149.617C143.068 151.569 143.596 153.665 143.596 155.905C143.596 156.289 143.58 156.657 143.548 157.009C143.516 157.329 143.484 157.601 143.452 157.825H123.34C123.436 159.297 123.836 160.593 124.54 161.713C125.276 162.801 126.204 163.665 127.324 164.305C128.444 164.913 129.644 165.217 130.924 165.217C132.332 165.217 133.66 164.865 134.908 164.161C136.188 163.457 137.052 162.529 137.5 161.377L142.012 162.673C141.468 163.889 140.636 164.993 139.516 165.985C138.428 166.945 137.132 167.713 135.628 168.289C134.124 168.833 132.492 169.105 130.732 169.105ZM123.196 154.321H138.364C138.268 152.881 137.852 151.617 137.116 150.529C136.412 149.409 135.5 148.545 134.38 147.937C133.292 147.297 132.076 146.977 130.732 146.977C129.42 146.977 128.204 147.297 127.084 147.937C125.996 148.545 125.1 149.409 124.396 150.529C123.692 151.617 123.292 152.881 123.196 154.321ZM161.636 167.329C161.188 167.553 160.628 167.793 159.956 168.049C159.284 168.305 158.516 168.529 157.652 168.721C156.82 168.913 155.956 169.009 155.06 169.009C153.972 169.009 152.964 168.817 152.036 168.433C151.108 168.049 150.356 167.441 149.78 166.609C149.236 165.745 148.964 164.641 148.964 163.297V147.601H145.652V143.521H148.964V135.265H154.244V143.521H159.716V147.601H154.244V161.617C154.308 162.481 154.58 163.121 155.06 163.537C155.572 163.953 156.196 164.161 156.932 164.161C157.668 164.161 158.372 164.033 159.044 163.777C159.716 163.521 160.212 163.313 160.532 163.153L161.636 167.329ZM177.152 168.625V143.521H182.432V168.625H177.152ZM177.152 139.393V133.585H182.432V139.393H177.152ZM211.289 168.625H206.009V154.561C206.009 152.225 205.625 150.513 204.857 149.425C204.121 148.337 203.017 147.793 201.545 147.793C200.521 147.793 199.497 148.049 198.473 148.561C197.481 149.073 196.585 149.777 195.785 150.673C194.985 151.537 194.409 152.545 194.057 153.697V168.625H188.777V143.521H193.577V148.561C194.217 147.441 195.049 146.481 196.073 145.681C197.129 144.849 198.313 144.209 199.625 143.761C200.937 143.313 202.329 143.089 203.801 143.089C205.305 143.089 206.537 143.361 207.497 143.905C208.489 144.449 209.257 145.201 209.801 146.161C210.377 147.089 210.761 148.177 210.953 149.425C211.177 150.641 211.289 151.937 211.289 153.313V168.625ZM243.245 167.329C242.797 167.553 242.237 167.793 241.565 168.049C240.893 168.305 240.125 168.529 239.261 168.721C238.429 168.913 237.565 169.009 236.669 169.009C235.581 169.009 234.573 168.817 233.645 168.433C232.717 168.049 231.965 167.441 231.389 166.609C230.845 165.745 230.573 164.641 230.573 163.297V147.601H227.261V143.521H230.573V135.265H235.853V143.521H241.325V147.601H235.853V161.617C235.917 162.481 236.189 163.121 236.669 163.537C237.181 163.953 237.805 164.161 238.541 164.161C239.277 164.161 239.981 164.033 240.653 163.777C241.325 163.521 241.821 163.313 242.141 163.153L243.245 167.329ZM257.854 169.105C255.87 169.105 254.094 168.769 252.526 168.097C250.958 167.393 249.598 166.433 248.446 165.217C247.326 164.001 246.462 162.625 245.854 161.089C245.246 159.521 244.942 157.857 244.942 156.097C244.942 154.337 245.246 152.673 245.854 151.105C246.462 149.537 247.326 148.161 248.446 146.977C249.598 145.761 250.958 144.817 252.526 144.145C254.126 143.441 255.902 143.089 257.854 143.089C259.806 143.089 261.566 143.441 263.134 144.145C264.734 144.817 266.094 145.761 267.214 146.977C268.366 148.161 269.246 149.537 269.854 151.105C270.462 152.673 270.766 154.337 270.766 156.097C270.766 157.857 270.462 159.521 269.854 161.089C269.246 162.625 268.366 164.001 267.214 165.217C266.094 166.433 264.734 167.393 263.134 168.097C261.566 168.769 259.806 169.105 257.854 169.105ZM250.366 156.145C250.366 157.745 250.702 159.185 251.374 160.465C252.046 161.745 252.942 162.753 254.062 163.489C255.182 164.225 256.446 164.593 257.854 164.593C259.23 164.593 260.478 164.225 261.598 163.489C262.75 162.721 263.662 161.697 264.334 160.417C265.006 159.105 265.342 157.665 265.342 156.097C265.342 154.497 265.006 153.057 264.334 151.777C263.662 150.497 262.75 149.489 261.598 148.753C260.478 147.985 259.23 147.601 257.854 147.601C256.446 147.601 255.182 147.985 254.062 148.753C252.942 149.521 252.046 150.545 251.374 151.825C250.702 153.073 250.366 154.513 250.366 156.145ZM275.209 158.881V143.521H280.489V157.825C280.489 160.065 280.889 161.761 281.689 162.913C282.521 164.033 283.721 164.593 285.289 164.593C286.281 164.593 287.241 164.385 288.169 163.969C289.129 163.553 289.993 162.945 290.761 162.145C291.561 161.313 292.201 160.321 292.681 159.169V143.521H297.961V162.673C297.961 163.281 298.073 163.713 298.297 163.969C298.521 164.225 298.889 164.369 299.401 164.401V168.625C298.857 168.721 298.409 168.785 298.057 168.817C297.705 168.849 297.369 168.865 297.049 168.865C296.089 168.865 295.289 168.609 294.649 168.097C294.009 167.553 293.641 166.865 293.545 166.033L293.449 163.537C292.329 165.361 290.873 166.753 289.081 167.713C287.289 168.641 285.321 169.105 283.177 169.105C280.553 169.105 278.569 168.241 277.225 166.513C275.881 164.785 275.209 162.241 275.209 158.881ZM316.075 169.105C314.123 169.105 312.347 168.769 310.747 168.097C309.179 167.393 307.819 166.433 306.667 165.217C305.515 164.001 304.619 162.609 303.979 161.041C303.371 159.473 303.067 157.809 303.067 156.049C303.067 153.681 303.595 151.521 304.651 149.569C305.739 147.617 307.243 146.049 309.163 144.865C311.115 143.681 313.419 143.089 316.075 143.089C318.635 143.089 320.859 143.665 322.747 144.817C324.667 145.937 326.075 147.441 326.971 149.329L321.835 150.961C321.259 149.905 320.443 149.089 319.387 148.513C318.363 147.905 317.227 147.601 315.979 147.601C314.571 147.601 313.291 147.969 312.139 148.705C311.019 149.409 310.123 150.401 309.451 151.681C308.811 152.929 308.491 154.385 308.491 156.049C308.491 157.649 308.827 159.105 309.499 160.417C310.171 161.697 311.067 162.721 312.187 163.489C313.339 164.225 314.619 164.593 316.027 164.593C316.891 164.593 317.723 164.449 318.523 164.161C319.355 163.841 320.075 163.425 320.683 162.913C321.291 162.369 321.723 161.777 321.979 161.137L327.163 162.673C326.619 163.921 325.803 165.025 324.715 165.985C323.659 166.945 322.395 167.713 320.923 168.289C319.483 168.833 317.867 169.105 316.075 169.105ZM354.024 168.625H348.744V154.561C348.744 152.289 348.328 150.593 347.496 149.473C346.664 148.353 345.496 147.793 343.992 147.793C343.064 147.793 342.104 148.049 341.112 148.561C340.12 149.073 339.24 149.777 338.472 150.673C337.704 151.537 337.144 152.545 336.792 153.697V168.625H331.512V133.585H336.792V148.561C337.752 146.865 339.064 145.537 340.728 144.577C342.392 143.585 344.184 143.089 346.104 143.089C347.672 143.089 348.968 143.361 349.992 143.905C351.016 144.449 351.816 145.201 352.392 146.161C353 147.089 353.416 148.177 353.64 149.425C353.896 150.641 354.024 151.937 354.024 153.313V168.625Z" fill="white"/>
<path d="M90.832 261.785C90.2027 261.785 89.6267 261.673 89.104 261.449C88.592 261.215 88.144 260.895 87.76 260.489C87.3867 260.084 87.0933 259.62 86.88 259.097C86.6773 258.575 86.576 258.02 86.576 257.433C86.576 256.644 86.752 255.924 87.104 255.273C87.456 254.623 87.952 254.105 88.592 253.721C89.232 253.327 89.9733 253.129 90.816 253.129C91.6373 253.129 92.352 253.316 92.96 253.689C93.5787 254.052 94.0373 254.543 94.336 255.161L92.96 255.593C92.7467 255.199 92.448 254.895 92.064 254.681C91.68 254.457 91.2533 254.345 90.784 254.345C90.272 254.345 89.8027 254.479 89.376 254.745C88.96 255.012 88.6293 255.38 88.384 255.849C88.1387 256.308 88.016 256.836 88.016 257.433C88.016 258.02 88.1387 258.553 88.384 259.033C88.64 259.503 88.976 259.876 89.392 260.153C89.8187 260.431 90.288 260.569 90.8 260.569C91.1307 260.569 91.4453 260.511 91.744 260.393C92.0533 260.276 92.32 260.121 92.544 259.929C92.7787 259.727 92.9387 259.508 93.024 259.273L94.4 259.689C94.2293 260.095 93.968 260.457 93.616 260.777C93.2747 261.087 92.864 261.332 92.384 261.513C91.9147 261.695 91.3973 261.785 90.832 261.785ZM99.5653 261.785C98.9359 261.785 98.3653 261.673 97.8533 261.449C97.3413 261.215 96.8986 260.9 96.5253 260.505C96.1519 260.1 95.8639 259.636 95.6613 259.113C95.4586 258.591 95.3573 258.041 95.3573 257.465C95.3573 256.879 95.4586 256.324 95.6613 255.801C95.8639 255.279 96.1519 254.82 96.5253 254.425C96.8986 254.02 97.3413 253.705 97.8533 253.481C98.3759 253.247 98.9466 253.129 99.5653 253.129C100.195 253.129 100.765 253.247 101.277 253.481C101.789 253.705 102.232 254.02 102.605 254.425C102.989 254.82 103.283 255.279 103.485 255.801C103.688 256.324 103.789 256.879 103.789 257.465C103.789 258.041 103.688 258.591 103.485 259.113C103.283 259.636 102.995 260.1 102.621 260.505C102.248 260.9 101.8 261.215 101.277 261.449C100.765 261.673 100.195 261.785 99.5653 261.785ZM96.7973 257.481C96.7973 258.057 96.9199 258.58 97.1653 259.049C97.4213 259.519 97.7573 259.892 98.1733 260.169C98.5893 260.436 99.0533 260.569 99.5653 260.569C100.077 260.569 100.541 260.431 100.957 260.153C101.384 259.876 101.72 259.503 101.965 259.033C102.221 258.553 102.349 258.025 102.349 257.449C102.349 256.873 102.221 256.351 101.965 255.881C101.72 255.412 101.384 255.039 100.957 254.761C100.541 254.484 100.077 254.345 99.5653 254.345C99.0533 254.345 98.5893 254.489 98.1733 254.777C97.7573 255.055 97.4213 255.428 97.1653 255.897C96.9199 256.367 96.7973 256.895 96.7973 257.481ZM112.743 261.625H111.335V256.953C111.335 256.068 111.197 255.423 110.919 255.017C110.653 254.601 110.242 254.393 109.687 254.393C109.303 254.393 108.919 254.489 108.535 254.681C108.162 254.873 107.826 255.135 107.527 255.465C107.239 255.785 107.031 256.159 106.903 256.585V261.625H105.495V253.273H106.775V255.065C106.999 254.671 107.287 254.329 107.639 254.041C107.991 253.753 108.391 253.529 108.839 253.369C109.287 253.209 109.757 253.129 110.247 253.129C110.727 253.129 111.127 253.22 111.447 253.401C111.778 253.572 112.034 253.817 112.215 254.137C112.407 254.447 112.541 254.815 112.615 255.241C112.701 255.668 112.743 256.132 112.743 256.633V261.625ZM119.175 261.209C119.057 261.263 118.897 261.332 118.695 261.417C118.492 261.503 118.257 261.577 117.991 261.641C117.724 261.705 117.441 261.737 117.143 261.737C116.801 261.737 116.487 261.679 116.199 261.561C115.911 261.433 115.681 261.241 115.511 260.985C115.34 260.719 115.255 260.388 115.255 259.993V254.377H114.119V253.273H115.255V250.489H116.663V253.273H118.535V254.377H116.663V259.561C116.684 259.86 116.785 260.084 116.967 260.233C117.148 260.372 117.361 260.441 117.607 260.441C117.884 260.441 118.14 260.393 118.375 260.297C118.609 260.201 118.764 260.132 118.839 260.089L119.175 261.209ZM119.824 259.209C119.824 258.676 119.973 258.217 120.272 257.833C120.581 257.439 121.002 257.135 121.536 256.921C122.069 256.708 122.688 256.601 123.392 256.601C123.765 256.601 124.16 256.633 124.576 256.697C124.992 256.751 125.36 256.836 125.68 256.953V256.345C125.68 255.705 125.488 255.204 125.104 254.841C124.72 254.468 124.176 254.281 123.472 254.281C123.013 254.281 122.57 254.367 122.144 254.537C121.728 254.697 121.285 254.932 120.816 255.241L120.304 254.249C120.848 253.876 121.392 253.599 121.936 253.417C122.48 253.225 123.045 253.129 123.632 253.129C124.698 253.129 125.541 253.428 126.16 254.025C126.778 254.612 127.088 255.433 127.088 256.489V260.025C127.088 260.196 127.12 260.324 127.184 260.409C127.258 260.484 127.376 260.527 127.536 260.537V261.625C127.397 261.647 127.274 261.663 127.168 261.673C127.072 261.684 126.992 261.689 126.928 261.689C126.597 261.689 126.346 261.599 126.176 261.417C126.016 261.236 125.925 261.044 125.904 260.841L125.872 260.313C125.509 260.783 125.034 261.145 124.448 261.401C123.861 261.657 123.28 261.785 122.704 261.785C122.149 261.785 121.653 261.673 121.216 261.449C120.778 261.215 120.437 260.905 120.192 260.521C119.946 260.127 119.824 259.689 119.824 259.209ZM125.264 259.801C125.392 259.652 125.493 259.503 125.568 259.353C125.642 259.193 125.68 259.06 125.68 258.953V257.913C125.349 257.785 125.002 257.689 124.64 257.625C124.277 257.551 123.92 257.513 123.568 257.513C122.853 257.513 122.272 257.657 121.824 257.945C121.386 258.223 121.168 258.607 121.168 259.097C121.168 259.364 121.237 259.625 121.376 259.881C121.525 260.127 121.738 260.329 122.016 260.489C122.304 260.649 122.656 260.729 123.072 260.729C123.509 260.729 123.925 260.644 124.32 260.473C124.714 260.292 125.029 260.068 125.264 259.801ZM133.035 261.785C132.406 261.785 131.83 261.673 131.307 261.449C130.795 261.215 130.347 260.895 129.963 260.489C129.59 260.084 129.296 259.62 129.083 259.097C128.88 258.575 128.779 258.02 128.779 257.433C128.779 256.644 128.955 255.924 129.307 255.273C129.659 254.623 130.155 254.105 130.795 253.721C131.435 253.327 132.176 253.129 133.019 253.129C133.84 253.129 134.555 253.316 135.163 253.689C135.782 254.052 136.24 254.543 136.539 255.161L135.163 255.593C134.95 255.199 134.651 254.895 134.267 254.681C133.883 254.457 133.456 254.345 132.987 254.345C132.475 254.345 132.006 254.479 131.579 254.745C131.163 255.012 130.832 255.38 130.587 255.849C130.342 256.308 130.219 256.836 130.219 257.433C130.219 258.02 130.342 258.553 130.587 259.033C130.843 259.503 131.179 259.876 131.595 260.153C132.022 260.431 132.491 260.569 133.003 260.569C133.334 260.569 133.648 260.511 133.947 260.393C134.256 260.276 134.523 260.121 134.747 259.929C134.982 259.727 135.142 259.508 135.227 259.273L136.603 259.689C136.432 260.095 136.171 260.457 135.819 260.777C135.478 261.087 135.067 261.332 134.587 261.513C134.118 261.695 133.6 261.785 133.035 261.785ZM142.519 261.209C142.401 261.263 142.241 261.332 142.039 261.417C141.836 261.503 141.601 261.577 141.335 261.641C141.068 261.705 140.785 261.737 140.487 261.737C140.145 261.737 139.831 261.679 139.543 261.561C139.255 261.433 139.025 261.241 138.855 260.985C138.684 260.719 138.599 260.388 138.599 259.993V254.377H137.463V253.273H138.599V250.489H140.007V253.273H141.879V254.377H140.007V259.561C140.028 259.86 140.129 260.084 140.311 260.233C140.492 260.372 140.705 260.441 140.951 260.441C141.228 260.441 141.484 260.393 141.719 260.297C141.953 260.201 142.108 260.132 142.183 260.089L142.519 261.209ZM149.392 251.977C150.181 251.977 150.928 252.121 151.632 252.409C152.336 252.687 152.96 253.092 153.504 253.625C154.048 254.159 154.474 254.804 154.784 255.561C155.104 256.308 155.264 257.145 155.264 258.073C155.264 258.255 155.248 258.5 155.216 258.809C155.194 259.119 155.141 259.449 155.056 259.801C154.97 260.153 154.842 260.489 154.672 260.809C154.501 261.119 154.266 261.375 153.968 261.577C153.68 261.78 153.317 261.881 152.88 261.881C152.517 261.881 152.24 261.812 152.048 261.673C151.856 261.535 151.722 261.359 151.648 261.145C151.573 260.921 151.52 260.692 151.488 260.457C151.189 260.777 150.8 261.049 150.32 261.273C149.85 261.487 149.333 261.593 148.768 261.593C147.989 261.593 147.386 261.385 146.96 260.969C146.544 260.553 146.336 260.036 146.336 259.417C146.336 258.852 146.485 258.409 146.784 258.089C147.082 257.769 147.461 257.54 147.92 257.401C148.389 257.263 148.858 257.193 149.328 257.193C149.786 257.193 150.186 257.241 150.528 257.337C150.869 257.423 151.125 257.497 151.296 257.561C151.296 257.092 151.242 256.681 151.135 256.329C151.029 255.967 150.832 255.684 150.544 255.481C150.266 255.279 149.872 255.177 149.36 255.177C148.933 255.177 148.533 255.247 148.16 255.385C147.786 255.513 147.45 255.689 147.152 255.913L146.832 255.129C147.216 254.873 147.632 254.676 148.08 254.537C148.528 254.388 148.997 254.313 149.488 254.313C150.117 254.313 150.613 254.415 150.976 254.617C151.338 254.809 151.605 255.071 151.776 255.401C151.946 255.721 152.058 256.079 152.112 256.473C152.165 256.857 152.192 257.236 152.192 257.609V259.513C152.192 259.823 152.208 260.105 152.24 260.361C152.272 260.617 152.346 260.82 152.464 260.969C152.581 261.108 152.762 261.177 153.008 261.177C153.328 261.177 153.589 261.071 153.792 260.857C154.005 260.633 154.165 260.356 154.272 260.025C154.389 259.684 154.469 259.337 154.512 258.985C154.565 258.623 154.592 258.308 154.592 258.041C154.592 257.273 154.458 256.564 154.192 255.913C153.936 255.252 153.573 254.676 153.104 254.185C152.634 253.695 152.08 253.311 151.44 253.033C150.81 252.756 150.117 252.617 149.36 252.617C148.624 252.617 147.936 252.751 147.296 253.017C146.656 253.273 146.096 253.641 145.616 254.121C145.146 254.601 144.773 255.167 144.496 255.817C144.229 256.468 144.096 257.177 144.096 257.945C144.096 258.692 144.224 259.391 144.48 260.041C144.736 260.692 145.093 261.263 145.552 261.753C146.01 262.244 146.554 262.628 147.184 262.905C147.813 263.183 148.501 263.321 149.248 263.321C149.717 263.321 150.144 263.263 150.528 263.145C150.922 263.039 151.317 262.895 151.712 262.713L151.936 263.321C151.509 263.535 151.066 263.695 150.608 263.801C150.149 263.908 149.69 263.961 149.232 263.961C148.432 263.961 147.68 263.812 146.976 263.513C146.282 263.225 145.669 262.809 145.136 262.265C144.602 261.732 144.181 261.097 143.872 260.361C143.573 259.625 143.424 258.82 143.424 257.945C143.424 257.028 143.584 256.201 143.904 255.465C144.234 254.729 144.677 254.105 145.232 253.593C145.797 253.071 146.437 252.671 147.152 252.393C147.866 252.116 148.613 251.977 149.392 251.977ZM150.304 260.409C150.581 260.281 150.789 260.137 150.928 259.977C151.066 259.807 151.157 259.631 151.2 259.449C151.253 259.257 151.28 259.071 151.28 258.889V258.297C151.141 258.276 150.896 258.212 150.544 258.105C150.202 257.999 149.792 257.945 149.312 257.945C148.949 257.945 148.608 257.988 148.288 258.073C147.978 258.159 147.728 258.308 147.536 258.521C147.344 258.724 147.248 259.001 147.248 259.353C147.248 259.62 147.312 259.86 147.44 260.073C147.578 260.287 147.765 260.457 148 260.585C148.234 260.703 148.512 260.761 148.832 260.761C149.088 260.761 149.344 260.729 149.6 260.665C149.866 260.591 150.101 260.505 150.304 260.409ZM160.957 261.785C160.328 261.785 159.752 261.673 159.229 261.449C158.717 261.215 158.269 260.9 157.885 260.505C157.512 260.1 157.218 259.636 157.005 259.113C156.802 258.591 156.701 258.036 156.701 257.449C156.701 256.66 156.882 255.94 157.245 255.289C157.608 254.639 158.109 254.116 158.749 253.721C159.4 253.327 160.141 253.129 160.973 253.129C161.816 253.129 162.546 253.332 163.165 253.737C163.794 254.132 164.28 254.655 164.621 255.305C164.973 255.945 165.149 256.639 165.149 257.385C165.149 257.492 165.144 257.599 165.133 257.705C165.133 257.801 165.128 257.876 165.117 257.929H158.189C158.232 258.473 158.381 258.959 158.637 259.385C158.904 259.801 159.245 260.132 159.661 260.377C160.077 260.612 160.525 260.729 161.005 260.729C161.517 260.729 161.997 260.601 162.445 260.345C162.904 260.089 163.218 259.753 163.389 259.337L164.605 259.673C164.424 260.079 164.152 260.441 163.789 260.761C163.437 261.081 163.016 261.332 162.525 261.513C162.045 261.695 161.522 261.785 160.957 261.785ZM158.141 256.953H163.837C163.794 256.409 163.64 255.929 163.373 255.513C163.106 255.097 162.765 254.772 162.349 254.537C161.933 254.303 161.474 254.185 160.973 254.185C160.482 254.185 160.029 254.303 159.613 254.537C159.197 254.772 158.856 255.097 158.589 255.513C158.333 255.929 158.184 256.409 158.141 256.953ZM166.602 257.897V256.617H171.322V257.897H166.602ZM177.176 261.785C176.546 261.785 175.97 261.673 175.448 261.449C174.936 261.215 174.488 260.895 174.104 260.489C173.73 260.084 173.437 259.62 173.224 259.097C173.021 258.575 172.92 258.02 172.92 257.433C172.92 256.644 173.096 255.924 173.448 255.273C173.8 254.623 174.296 254.105 174.936 253.721C175.576 253.327 176.317 253.129 177.16 253.129C177.981 253.129 178.696 253.316 179.304 253.689C179.922 254.052 180.381 254.543 180.68 255.161L179.304 255.593C179.09 255.199 178.792 254.895 178.408 254.681C178.024 254.457 177.597 254.345 177.128 254.345C176.616 254.345 176.146 254.479 175.72 254.745C175.304 255.012 174.973 255.38 174.728 255.849C174.482 256.308 174.36 256.836 174.36 257.433C174.36 258.02 174.482 258.553 174.728 259.033C174.984 259.503 175.32 259.876 175.736 260.153C176.162 260.431 176.632 260.569 177.144 260.569C177.474 260.569 177.789 260.511 178.088 260.393C178.397 260.276 178.664 260.121 178.888 259.929C179.122 259.727 179.282 259.508 179.368 259.273L180.744 259.689C180.573 260.095 180.312 260.457 179.96 260.777C179.618 261.087 179.208 261.332 178.728 261.513C178.258 261.695 177.741 261.785 177.176 261.785ZM185.909 261.785C185.28 261.785 184.709 261.673 184.197 261.449C183.685 261.215 183.242 260.9 182.869 260.505C182.496 260.1 182.208 259.636 182.005 259.113C181.802 258.591 181.701 258.041 181.701 257.465C181.701 256.879 181.802 256.324 182.005 255.801C182.208 255.279 182.496 254.82 182.869 254.425C183.242 254.02 183.685 253.705 184.197 253.481C184.72 253.247 185.29 253.129 185.909 253.129C186.538 253.129 187.109 253.247 187.621 253.481C188.133 253.705 188.576 254.02 188.949 254.425C189.333 254.82 189.626 255.279 189.829 255.801C190.032 256.324 190.133 256.879 190.133 257.465C190.133 258.041 190.032 258.591 189.829 259.113C189.626 259.636 189.338 260.1 188.965 260.505C188.592 260.9 188.144 261.215 187.621 261.449C187.109 261.673 186.538 261.785 185.909 261.785ZM183.141 257.481C183.141 258.057 183.264 258.58 183.509 259.049C183.765 259.519 184.101 259.892 184.517 260.169C184.933 260.436 185.397 260.569 185.909 260.569C186.421 260.569 186.885 260.431 187.301 260.153C187.728 259.876 188.064 259.503 188.309 259.033C188.565 258.553 188.693 258.025 188.693 257.449C188.693 256.873 188.565 256.351 188.309 255.881C188.064 255.412 187.728 255.039 187.301 254.761C186.885 254.484 186.421 254.345 185.909 254.345C185.397 254.345 184.933 254.489 184.517 254.777C184.101 255.055 183.765 255.428 183.509 255.897C183.264 256.367 183.141 256.895 183.141 257.481ZM204.431 261.625H203.023V256.953C203.023 256.079 202.879 255.433 202.591 255.017C202.314 254.601 201.898 254.393 201.343 254.393C200.778 254.393 200.266 254.601 199.807 255.017C199.348 255.423 199.023 255.951 198.831 256.601V261.625H197.423V256.953C197.423 256.068 197.284 255.423 197.007 255.017C196.73 254.601 196.314 254.393 195.759 254.393C195.204 254.393 194.692 254.596 194.223 255.001C193.764 255.396 193.439 255.924 193.247 256.585V261.625H191.839V253.273H193.119V255.065C193.46 254.447 193.903 253.972 194.447 253.641C194.991 253.3 195.604 253.129 196.287 253.129C196.98 253.129 197.535 253.321 197.951 253.705C198.367 254.079 198.623 254.564 198.719 255.161C199.092 254.5 199.546 253.999 200.079 253.657C200.612 253.305 201.22 253.129 201.903 253.129C202.383 253.129 202.783 253.22 203.103 253.401C203.434 253.572 203.695 253.817 203.887 254.137C204.079 254.447 204.218 254.815 204.303 255.241C204.388 255.668 204.431 256.132 204.431 256.633V261.625ZM219.212 261.625H217.804V256.953C217.804 256.079 217.66 255.433 217.372 255.017C217.095 254.601 216.679 254.393 216.124 254.393C215.559 254.393 215.047 254.601 214.588 255.017C214.13 255.423 213.804 255.951 213.612 256.601V261.625H212.204V256.953C212.204 256.068 212.066 255.423 211.788 255.017C211.511 254.601 211.095 254.393 210.54 254.393C209.986 254.393 209.474 254.596 209.004 255.001C208.546 255.396 208.22 255.924 208.028 256.585V261.625H206.62V253.273H207.9V255.065C208.242 254.447 208.684 253.972 209.228 253.641C209.772 253.3 210.386 253.129 211.068 253.129C211.762 253.129 212.316 253.321 212.732 253.705C213.148 254.079 213.404 254.564 213.5 255.161C213.874 254.5 214.327 253.999 214.86 253.657C215.394 253.305 216.002 253.129 216.684 253.129C217.164 253.129 217.564 253.22 217.884 253.401C218.215 253.572 218.476 253.817 218.668 254.137C218.86 254.447 218.999 254.815 219.084 255.241C219.17 255.668 219.212 256.132 219.212 256.633V261.625ZM221.29 261.625V259.833H222.474V261.625H221.29ZM231.884 261.625H230.476V256.953C230.476 256.068 230.337 255.423 230.06 255.017C229.793 254.601 229.383 254.393 228.828 254.393C228.444 254.393 228.06 254.489 227.676 254.681C227.303 254.873 226.967 255.135 226.668 255.465C226.38 255.785 226.172 256.159 226.044 256.585V261.625H224.636V253.273H225.916V255.065C226.14 254.671 226.428 254.329 226.78 254.041C227.132 253.753 227.532 253.529 227.98 253.369C228.428 253.209 228.897 253.129 229.388 253.129C229.868 253.129 230.268 253.22 230.588 253.401C230.919 253.572 231.175 253.817 231.356 254.137C231.548 254.447 231.681 254.815 231.756 255.241C231.841 255.668 231.884 256.132 231.884 256.633V261.625ZM237.402 261.721C236.836 261.721 236.314 261.609 235.834 261.385C235.364 261.151 234.959 260.836 234.618 260.441C234.276 260.036 234.01 259.577 233.818 259.065C233.636 258.553 233.546 258.02 233.546 257.465C233.546 256.879 233.636 256.324 233.818 255.801C234.01 255.279 234.276 254.82 234.618 254.425C234.97 254.02 235.38 253.705 235.85 253.481C236.319 253.247 236.842 253.129 237.418 253.129C238.111 253.129 238.714 253.3 239.226 253.641C239.748 253.983 240.186 254.415 240.538 254.937V253.273H241.786V261.529C241.786 262.319 241.594 262.985 241.21 263.529C240.836 264.073 240.324 264.484 239.674 264.761C239.034 265.049 238.319 265.193 237.53 265.193C236.591 265.193 235.823 265.028 235.226 264.697C234.628 264.367 234.132 263.919 233.738 263.353L234.554 262.633C234.884 263.124 235.311 263.492 235.834 263.737C236.367 263.983 236.932 264.105 237.53 264.105C238.042 264.105 238.511 264.009 238.938 263.817C239.375 263.636 239.722 263.353 239.978 262.969C240.244 262.585 240.378 262.105 240.378 261.529V260.057C240.068 260.569 239.642 260.975 239.098 261.273C238.564 261.572 237.999 261.721 237.402 261.721ZM237.834 260.569C238.132 260.569 238.42 260.516 238.698 260.409C238.975 260.303 239.231 260.164 239.466 259.993C239.7 259.812 239.898 259.609 240.058 259.385C240.218 259.161 240.324 258.932 240.378 258.697V256.297C240.228 255.913 240.015 255.577 239.738 255.289C239.46 254.991 239.146 254.761 238.794 254.601C238.442 254.431 238.079 254.345 237.706 254.345C237.279 254.345 236.895 254.436 236.554 254.617C236.223 254.799 235.94 255.044 235.706 255.353C235.471 255.652 235.29 255.988 235.162 256.361C235.034 256.735 234.97 257.113 234.97 257.497C234.97 257.913 235.044 258.308 235.194 258.681C235.343 259.044 235.546 259.369 235.802 259.657C236.058 259.945 236.362 260.169 236.714 260.329C237.066 260.489 237.439 260.569 237.834 260.569Z" fill="white"/>
<path d="M91.856 315.369V316.521H89.968V318.569H88.688V316.521H86.8V315.369H88.688V313.321H89.968V315.369H91.856ZM93.1255 321.625C93.1255 321.199 93.1575 320.799 93.2215 320.425C93.2962 320.052 93.4242 319.695 93.6055 319.353C93.7975 319.012 94.0642 318.687 94.4055 318.377C94.7468 318.057 95.1895 317.748 95.7335 317.449C96.0535 317.268 96.3735 317.097 96.6935 316.937C97.0242 316.777 97.3282 316.607 97.6055 316.425C97.8935 316.244 98.1228 316.047 98.2935 315.833C98.4642 315.609 98.5495 315.353 98.5495 315.065C98.5495 314.82 98.4748 314.585 98.3255 314.361C98.1868 314.127 97.9735 313.94 97.6855 313.801C97.4082 313.652 97.0615 313.577 96.6455 313.577C96.3255 313.577 96.0322 313.62 95.7655 313.705C95.5095 313.791 95.2748 313.903 95.0615 314.041C94.8588 314.169 94.6775 314.308 94.5175 314.457C94.3682 314.596 94.2402 314.724 94.1335 314.841L93.2535 313.849C93.3388 313.753 93.4828 313.625 93.6855 313.465C93.8882 313.295 94.1442 313.124 94.4535 312.953C94.7628 312.783 95.1202 312.639 95.5255 312.521C95.9415 312.393 96.3948 312.329 96.8855 312.329C97.5468 312.329 98.1122 312.447 98.5815 312.681C99.0615 312.905 99.4295 313.215 99.6855 313.609C99.9415 313.993 100.07 314.425 100.07 314.905C100.07 315.321 99.9788 315.684 99.7975 315.993C99.6268 316.303 99.4028 316.575 99.1255 316.809C98.8588 317.044 98.5762 317.247 98.2775 317.417C97.9895 317.577 97.7282 317.716 97.4935 317.833C97.0135 318.068 96.6028 318.281 96.2615 318.473C95.9202 318.665 95.6375 318.857 95.4135 319.049C95.2002 319.231 95.0242 319.423 94.8855 319.625C94.7575 319.828 94.6615 320.068 94.5975 320.345H100.246V321.625H93.1255ZM106.728 317.849C107.187 317.924 107.581 318.095 107.912 318.361C108.243 318.617 108.499 318.948 108.68 319.353C108.861 319.748 108.952 320.196 108.952 320.697C108.952 321.348 108.792 321.919 108.472 322.409C108.163 322.911 107.72 323.295 107.144 323.561C106.568 323.839 105.896 323.977 105.128 323.977C104.317 323.977 103.603 323.823 102.984 323.513C102.376 323.215 101.901 322.788 101.56 322.233L102.504 321.289C102.749 321.716 103.08 322.057 103.496 322.313C103.923 322.569 104.467 322.697 105.128 322.697C105.864 322.697 106.44 322.527 106.856 322.185C107.283 321.855 107.496 321.359 107.496 320.697C107.496 320.025 107.267 319.492 106.808 319.097C106.36 318.692 105.704 318.489 104.84 318.489H104.424V317.305H104.872C105.64 317.305 106.227 317.119 106.632 316.745C107.048 316.372 107.256 315.908 107.256 315.353C107.256 314.969 107.165 314.655 106.984 314.409C106.803 314.164 106.557 313.983 106.248 313.865C105.939 313.737 105.581 313.673 105.176 313.673C104.589 313.673 104.072 313.801 103.624 314.057C103.187 314.303 102.845 314.649 102.6 315.097L101.736 314.201C101.928 313.839 102.2 313.524 102.552 313.257C102.915 312.991 103.331 312.783 103.8 312.633C104.28 312.484 104.787 312.409 105.32 312.409C105.992 312.409 106.584 312.527 107.096 312.761C107.619 312.996 108.024 313.327 108.312 313.753C108.6 314.18 108.744 314.681 108.744 315.257C108.744 315.673 108.664 316.068 108.504 316.441C108.344 316.804 108.109 317.113 107.8 317.369C107.501 317.615 107.144 317.775 106.728 317.849ZM115.161 323.657V320.953H110.025V319.705L115.609 312.489H116.569V319.673H117.977V320.953H116.569V323.657H115.161ZM111.481 319.673H115.305V314.665L111.481 319.673ZM128.129 323.657V320.953H122.993V319.705L128.577 312.489H129.537V319.673H130.945V320.953H129.537V323.657H128.129ZM124.449 319.673H128.273V314.665L124.449 319.673ZM135.723 324.009C134.913 324.009 134.182 323.817 133.531 323.433C132.881 323.049 132.39 322.537 132.059 321.897L132.939 321.129C133.238 321.62 133.633 322.015 134.123 322.313C134.625 322.612 135.163 322.761 135.739 322.761C136.23 322.761 136.667 322.655 137.051 322.441C137.435 322.228 137.739 321.935 137.963 321.561C138.187 321.177 138.299 320.74 138.299 320.249C138.299 319.769 138.187 319.348 137.963 318.985C137.75 318.623 137.457 318.34 137.083 318.137C136.721 317.935 136.31 317.833 135.851 317.833C135.393 317.833 134.961 317.935 134.555 318.137C134.161 318.34 133.835 318.628 133.579 319.001H132.315L133.595 312.489H139.115V313.785H134.635L133.947 317.401C134.182 317.156 134.475 316.964 134.827 316.825C135.19 316.676 135.59 316.601 136.027 316.601C136.731 316.601 137.361 316.756 137.915 317.065C138.481 317.375 138.923 317.801 139.243 318.345C139.574 318.889 139.739 319.519 139.739 320.233C139.739 320.98 139.558 321.636 139.195 322.201C138.843 322.777 138.363 323.22 137.755 323.529C137.147 323.849 136.47 324.009 135.723 324.009ZM144.489 324.009C143.678 324.009 142.948 323.817 142.297 323.433C141.646 323.049 141.156 322.537 140.825 321.897L141.705 321.129C142.004 321.62 142.398 322.015 142.889 322.313C143.39 322.612 143.929 322.761 144.505 322.761C144.996 322.761 145.433 322.655 145.817 322.441C146.201 322.228 146.505 321.935 146.729 321.561C146.953 321.177 147.065 320.74 147.065 320.249C147.065 319.769 146.953 319.348 146.729 318.985C146.516 318.623 146.222 318.34 145.849 318.137C145.486 317.935 145.076 317.833 144.617 317.833C144.158 317.833 143.726 317.935 143.321 318.137C142.926 318.34 142.601 318.628 142.345 319.001H141.081L142.361 312.489H147.881V313.785H143.401L142.713 317.401C142.948 317.156 143.241 316.964 143.593 316.825C143.956 316.676 144.356 316.601 144.793 316.601C145.497 316.601 146.126 316.756 146.681 317.065C147.246 317.375 147.689 317.801 148.009 318.345C148.34 318.889 148.505 319.519 148.505 320.233C148.505 320.98 148.324 321.636 147.961 322.201C147.609 322.777 147.129 323.22 146.521 323.529C145.913 323.849 145.236 324.009 144.489 324.009ZM158.055 317.865C158.055 318.591 157.873 319.252 157.51 319.849C157.159 320.436 156.673 320.905 156.055 321.257C155.447 321.609 154.759 321.785 153.991 321.785C153.18 321.785 152.465 321.593 151.847 321.209C151.228 320.815 150.743 320.249 150.391 319.513C150.049 318.777 149.879 317.903 149.879 316.889C149.879 315.396 150.055 314.153 150.407 313.161C150.759 312.169 151.255 311.428 151.895 310.937C152.535 310.436 153.281 310.185 154.135 310.185C154.871 310.185 155.537 310.367 156.135 310.729C156.743 311.081 157.217 311.572 157.559 312.201L156.695 313.049C156.46 312.548 156.113 312.153 155.655 311.865C155.196 311.567 154.684 311.417 154.119 311.417C153.543 311.417 153.036 311.593 152.599 311.945C152.161 312.297 151.82 312.804 151.575 313.465C151.34 314.127 151.217 314.927 151.207 315.865C151.367 315.492 151.591 315.172 151.879 314.905C152.167 314.628 152.503 314.415 152.887 314.265C153.281 314.116 153.697 314.041 154.135 314.041C154.871 314.041 155.532 314.212 156.119 314.553C156.716 314.895 157.185 315.353 157.527 315.929C157.879 316.505 158.055 317.151 158.055 317.865ZM154.007 320.569C154.497 320.569 154.945 320.447 155.351 320.201C155.767 319.956 156.097 319.631 156.343 319.225C156.588 318.809 156.711 318.356 156.711 317.865C156.711 317.375 156.588 316.927 156.343 316.521C156.097 316.116 155.767 315.791 155.351 315.545C154.945 315.3 154.497 315.177 154.007 315.177C153.516 315.177 153.063 315.3 152.647 315.545C152.241 315.791 151.916 316.116 151.671 316.521C151.425 316.927 151.303 317.375 151.303 317.865C151.303 318.356 151.425 318.809 151.671 319.225C151.916 319.631 152.241 319.956 152.647 320.201C153.063 320.447 153.516 320.569 154.007 320.569ZM171.805 317.865C171.805 318.591 171.623 319.252 171.26 319.849C170.909 320.436 170.423 320.905 169.805 321.257C169.197 321.609 168.509 321.785 167.741 321.785C166.93 321.785 166.215 321.593 165.597 321.209C164.978 320.815 164.493 320.249 164.141 319.513C163.799 318.777 163.629 317.903 163.629 316.889C163.629 315.396 163.805 314.153 164.157 313.161C164.509 312.169 165.005 311.428 165.645 310.937C166.285 310.436 167.031 310.185 167.885 310.185C168.621 310.185 169.287 310.367 169.885 310.729C170.493 311.081 170.967 311.572 171.309 312.201L170.445 313.049C170.21 312.548 169.863 312.153 169.405 311.865C168.946 311.567 168.434 311.417 167.869 311.417C167.293 311.417 166.786 311.593 166.349 311.945C165.911 312.297 165.57 312.804 165.325 313.465C165.09 314.127 164.967 314.927 164.957 315.865C165.117 315.492 165.341 315.172 165.629 314.905C165.917 314.628 166.253 314.415 166.637 314.265C167.031 314.116 167.447 314.041 167.885 314.041C168.621 314.041 169.282 314.212 169.869 314.553C170.466 314.895 170.935 315.353 171.277 315.929C171.629 316.505 171.805 317.151 171.805 317.865ZM167.757 320.569C168.247 320.569 168.695 320.447 169.101 320.201C169.517 319.956 169.847 319.631 170.093 319.225C170.338 318.809 170.461 318.356 170.461 317.865C170.461 317.375 170.338 316.927 170.093 316.521C169.847 316.116 169.517 315.791 169.101 315.545C168.695 315.3 168.247 315.177 167.757 315.177C167.266 315.177 166.813 315.3 166.397 315.545C165.991 315.791 165.666 316.116 165.421 316.521C165.175 316.927 165.053 317.375 165.053 317.865C165.053 318.356 165.175 318.809 165.421 319.225C165.666 319.631 165.991 319.956 166.397 320.201C166.813 320.447 167.266 320.569 167.757 320.569ZM181.508 317.865C181.508 318.591 181.326 319.252 180.964 319.849C180.612 320.436 180.126 320.905 179.508 321.257C178.9 321.609 178.212 321.785 177.444 321.785C176.633 321.785 175.918 321.593 175.3 321.209C174.681 320.815 174.196 320.249 173.844 319.513C173.502 318.777 173.332 317.903 173.332 316.889C173.332 315.396 173.508 314.153 173.86 313.161C174.212 312.169 174.708 311.428 175.348 310.937C175.988 310.436 176.734 310.185 177.588 310.185C178.324 310.185 178.99 310.367 179.588 310.729C180.196 311.081 180.67 311.572 181.012 312.201L180.148 313.049C179.913 312.548 179.566 312.153 179.108 311.865C178.649 311.567 178.137 311.417 177.572 311.417C176.996 311.417 176.489 311.593 176.052 311.945C175.614 312.297 175.273 312.804 175.028 313.465C174.793 314.127 174.67 314.927 174.66 315.865C174.82 315.492 175.044 315.172 175.332 314.905C175.62 314.628 175.956 314.415 176.34 314.265C176.734 314.116 177.15 314.041 177.588 314.041C178.324 314.041 178.985 314.212 179.572 314.553C180.169 314.895 180.638 315.353 180.98 315.929C181.332 316.505 181.508 317.151 181.508 317.865ZM177.46 320.569C177.95 320.569 178.398 320.447 178.804 320.201C179.22 319.956 179.55 319.631 179.796 319.225C180.041 318.809 180.164 318.356 180.164 317.865C180.164 317.375 180.041 316.927 179.796 316.521C179.55 316.116 179.22 315.791 178.804 315.545C178.398 315.3 177.95 315.177 177.46 315.177C176.969 315.177 176.516 315.3 176.1 315.545C175.694 315.791 175.369 316.116 175.124 316.521C174.878 316.927 174.756 317.375 174.756 317.865C174.756 318.356 174.878 318.809 175.124 319.225C175.369 319.631 175.694 319.956 176.1 320.201C176.516 320.447 176.969 320.569 177.46 320.569ZM191.211 317.865C191.211 318.591 191.029 319.252 190.667 319.849C190.315 320.436 189.829 320.905 189.211 321.257C188.603 321.609 187.915 321.785 187.147 321.785C186.336 321.785 185.621 321.593 185.003 321.209C184.384 320.815 183.899 320.249 183.547 319.513C183.205 318.777 183.035 317.903 183.035 316.889C183.035 315.396 183.211 314.153 183.563 313.161C183.915 312.169 184.411 311.428 185.051 310.937C185.691 310.436 186.437 310.185 187.291 310.185C188.027 310.185 188.693 310.367 189.291 310.729C189.899 311.081 190.373 311.572 190.715 312.201L189.851 313.049C189.616 312.548 189.269 312.153 188.811 311.865C188.352 311.567 187.84 311.417 187.275 311.417C186.699 311.417 186.192 311.593 185.755 311.945C185.317 312.297 184.976 312.804 184.731 313.465C184.496 314.127 184.373 314.927 184.363 315.865C184.523 315.492 184.747 315.172 185.035 314.905C185.323 314.628 185.659 314.415 186.043 314.265C186.437 314.116 186.853 314.041 187.291 314.041C188.027 314.041 188.688 314.212 189.275 314.553C189.872 314.895 190.341 315.353 190.683 315.929C191.035 316.505 191.211 317.151 191.211 317.865ZM187.163 320.569C187.653 320.569 188.101 320.447 188.507 320.201C188.923 319.956 189.253 319.631 189.499 319.225C189.744 318.809 189.867 318.356 189.867 317.865C189.867 317.375 189.744 316.927 189.499 316.521C189.253 316.116 188.923 315.791 188.507 315.545C188.101 315.3 187.653 315.177 187.163 315.177C186.672 315.177 186.219 315.3 185.803 315.545C185.397 315.791 185.072 316.116 184.827 316.521C184.581 316.927 184.459 317.375 184.459 317.865C184.459 318.356 184.581 318.809 184.827 319.225C185.072 319.631 185.397 319.956 185.803 320.201C186.219 320.447 186.672 320.569 187.163 320.569ZM196.114 324.009C195.303 324.009 194.573 323.817 193.922 323.433C193.271 323.049 192.781 322.537 192.45 321.897L193.33 321.129C193.629 321.62 194.023 322.015 194.514 322.313C195.015 322.612 195.554 322.761 196.13 322.761C196.621 322.761 197.058 322.655 197.442 322.441C197.826 322.228 198.13 321.935 198.354 321.561C198.578 321.177 198.69 320.74 198.69 320.249C198.69 319.769 198.578 319.348 198.354 318.985C198.141 318.623 197.847 318.34 197.474 318.137C197.111 317.935 196.701 317.833 196.242 317.833C195.783 317.833 195.351 317.935 194.946 318.137C194.551 318.34 194.226 318.628 193.97 319.001H192.706L193.986 312.489H199.506V313.785H195.026L194.338 317.401C194.573 317.156 194.866 316.964 195.218 316.825C195.581 316.676 195.981 316.601 196.418 316.601C197.122 316.601 197.751 316.756 198.306 317.065C198.871 317.375 199.314 317.801 199.634 318.345C199.965 318.889 200.13 319.519 200.13 320.233C200.13 320.98 199.949 321.636 199.586 322.201C199.234 322.777 198.754 323.22 198.146 323.529C197.538 323.849 196.861 324.009 196.114 324.009ZM210.462 317.849C210.921 317.924 211.316 318.095 211.646 318.361C211.977 318.617 212.233 318.948 212.414 319.353C212.596 319.748 212.686 320.196 212.686 320.697C212.686 321.348 212.526 321.919 212.206 322.409C211.897 322.911 211.454 323.295 210.878 323.561C210.302 323.839 209.63 323.977 208.862 323.977C208.052 323.977 207.337 323.823 206.718 323.513C206.11 323.215 205.636 322.788 205.294 322.233L206.238 321.289C206.484 321.716 206.814 322.057 207.23 322.313C207.657 322.569 208.201 322.697 208.862 322.697C209.598 322.697 210.174 322.527 210.59 322.185C211.017 321.855 211.23 321.359 211.23 320.697C211.23 320.025 211.001 319.492 210.542 319.097C210.094 318.692 209.438 318.489 208.574 318.489H208.158V317.305H208.606C209.374 317.305 209.961 317.119 210.366 316.745C210.782 316.372 210.99 315.908 210.99 315.353C210.99 314.969 210.9 314.655 210.718 314.409C210.537 314.164 210.292 313.983 209.982 313.865C209.673 313.737 209.316 313.673 208.91 313.673C208.324 313.673 207.806 313.801 207.358 314.057C206.921 314.303 206.58 314.649 206.334 315.097L205.47 314.201C205.662 313.839 205.934 313.524 206.286 313.257C206.649 312.991 207.065 312.783 207.534 312.633C208.014 312.484 208.521 312.409 209.054 312.409C209.726 312.409 210.318 312.527 210.83 312.761C211.353 312.996 211.758 313.327 212.046 313.753C212.334 314.18 212.478 314.681 212.478 315.257C212.478 315.673 212.398 316.068 212.238 316.441C212.078 316.804 211.844 317.113 211.534 317.369C211.236 317.615 210.878 317.775 210.462 317.849ZM218.895 323.657V320.953H213.759V319.705L219.343 312.489H220.303V319.673H221.711V320.953H220.303V323.657H218.895ZM215.215 319.673H219.039V314.665L215.215 319.673Z" fill="white"/>
<path d="M86.688 373.625C86.688 373.199 86.72 372.799 86.784 372.425C86.8587 372.052 86.9867 371.695 87.168 371.353C87.36 371.012 87.6267 370.687 87.968 370.377C88.3093 370.057 88.752 369.748 89.296 369.449C89.616 369.268 89.936 369.097 90.256 368.937C90.5867 368.777 90.8907 368.607 91.168 368.425C91.456 368.244 91.6853 368.047 91.856 367.833C92.0267 367.609 92.112 367.353 92.112 367.065C92.112 366.82 92.0373 366.585 91.888 366.361C91.7493 366.127 91.536 365.94 91.248 365.801C90.9707 365.652 90.624 365.577 90.208 365.577C89.888 365.577 89.5947 365.62 89.328 365.705C89.072 365.791 88.8373 365.903 88.624 366.041C88.4213 366.169 88.24 366.308 88.08 366.457C87.9307 366.596 87.8027 366.724 87.696 366.841L86.816 365.849C86.9013 365.753 87.0453 365.625 87.248 365.465C87.4507 365.295 87.7067 365.124 88.016 364.953C88.3253 364.783 88.6827 364.639 89.088 364.521C89.504 364.393 89.9573 364.329 90.448 364.329C91.1093 364.329 91.6747 364.447 92.144 364.681C92.624 364.905 92.992 365.215 93.248 365.609C93.504 365.993 93.632 366.425 93.632 366.905C93.632 367.321 93.5413 367.684 93.36 367.993C93.1893 368.303 92.9653 368.575 92.688 368.809C92.4213 369.044 92.1387 369.247 91.84 369.417C91.552 369.577 91.2907 369.716 91.056 369.833C90.576 370.068 90.1653 370.281 89.824 370.473C89.4827 370.665 89.2 370.857 88.976 371.049C88.7627 371.231 88.5867 371.423 88.448 371.625C88.32 371.828 88.224 372.068 88.16 372.345H93.808V373.625H86.688ZM103.523 368.937C103.523 369.876 103.347 370.713 102.995 371.449C102.643 372.175 102.163 372.745 101.555 373.161C100.947 373.577 100.253 373.785 99.4745 373.785C98.6958 373.785 98.0025 373.577 97.3945 373.161C96.7865 372.745 96.3065 372.175 95.9545 371.449C95.6025 370.713 95.4265 369.876 95.4265 368.937C95.4265 367.999 95.6025 367.167 95.9545 366.441C96.3065 365.705 96.7865 365.129 97.3945 364.713C98.0025 364.287 98.6958 364.073 99.4745 364.073C100.253 364.073 100.947 364.287 101.555 364.713C102.163 365.129 102.643 365.705 102.995 366.441C103.347 367.167 103.523 367.999 103.523 368.937ZM102.099 368.937C102.099 368.233 101.987 367.615 101.763 367.081C101.539 366.548 101.229 366.132 100.835 365.833C100.44 365.535 99.9865 365.385 99.4745 365.385C98.9518 365.385 98.4932 365.535 98.0985 365.833C97.7038 366.132 97.3945 366.548 97.1705 367.081C96.9465 367.615 96.8345 368.233 96.8345 368.937C96.8345 369.641 96.9465 370.26 97.1705 370.793C97.3945 371.316 97.7038 371.727 98.0985 372.025C98.4932 372.324 98.9518 372.473 99.4745 372.473C99.9865 372.473 100.44 372.324 100.835 372.025C101.229 371.727 101.539 371.316 101.763 370.793C101.987 370.26 102.099 369.641 102.099 368.937ZM109.798 373.625V362.265H114.534C115.035 362.265 115.494 362.372 115.91 362.585C116.326 362.788 116.688 363.065 116.998 363.417C117.307 363.759 117.547 364.148 117.718 364.585C117.888 365.012 117.974 365.449 117.974 365.897C117.974 366.516 117.835 367.108 117.558 367.673C117.28 368.228 116.891 368.681 116.39 369.033C115.888 369.375 115.302 369.545 114.63 369.545H111.238V373.625H109.798ZM111.238 368.265H114.55C114.944 368.265 115.286 368.159 115.574 367.945C115.872 367.732 116.102 367.444 116.262 367.081C116.432 366.719 116.517 366.324 116.517 365.897C116.517 365.449 116.422 365.049 116.23 364.697C116.038 364.335 115.787 364.052 115.478 363.849C115.168 363.647 114.827 363.545 114.454 363.545H111.238V368.265ZM123.958 366.505C123.254 366.516 122.63 366.697 122.086 367.049C121.553 367.391 121.174 367.865 120.95 368.473V373.625H119.542V365.273H120.854V367.209C121.142 366.633 121.521 366.169 121.99 365.817C122.47 365.455 122.972 365.252 123.494 365.209C123.601 365.209 123.692 365.209 123.766 365.209C123.841 365.209 123.905 365.215 123.958 365.225V366.505ZM125.355 373.625V365.273H126.763V373.625H125.355ZM125.355 363.705V361.945H126.763V363.705H125.355ZM136.29 373.625H134.882V368.953C134.882 368.068 134.744 367.423 134.466 367.017C134.2 366.601 133.789 366.393 133.234 366.393C132.85 366.393 132.466 366.489 132.082 366.681C131.709 366.873 131.373 367.135 131.074 367.465C130.786 367.785 130.578 368.159 130.45 368.585V373.625H129.042V365.273H130.322V367.065C130.546 366.671 130.834 366.329 131.186 366.041C131.538 365.753 131.938 365.529 132.386 365.369C132.834 365.209 133.304 365.129 133.794 365.129C134.274 365.129 134.674 365.22 134.994 365.401C135.325 365.572 135.581 365.817 135.762 366.137C135.954 366.447 136.088 366.815 136.162 367.241C136.248 367.668 136.29 368.132 136.29 368.633V373.625ZM142.176 373.785C141.546 373.785 140.97 373.673 140.448 373.449C139.936 373.215 139.488 372.895 139.104 372.489C138.73 372.084 138.437 371.62 138.224 371.097C138.021 370.575 137.92 370.02 137.92 369.433C137.92 368.644 138.096 367.924 138.448 367.273C138.8 366.623 139.296 366.105 139.936 365.721C140.576 365.327 141.317 365.129 142.16 365.129C142.981 365.129 143.696 365.316 144.304 365.689C144.922 366.052 145.381 366.543 145.68 367.161L144.304 367.593C144.09 367.199 143.792 366.895 143.408 366.681C143.024 366.457 142.597 366.345 142.128 366.345C141.616 366.345 141.146 366.479 140.72 366.745C140.304 367.012 139.973 367.38 139.728 367.849C139.482 368.308 139.36 368.836 139.36 369.433C139.36 370.02 139.482 370.553 139.728 371.033C139.984 371.503 140.32 371.876 140.736 372.153C141.162 372.431 141.632 372.569 142.144 372.569C142.474 372.569 142.789 372.511 143.088 372.393C143.397 372.276 143.664 372.121 143.888 371.929C144.122 371.727 144.282 371.508 144.368 371.273L145.744 371.689C145.573 372.095 145.312 372.457 144.96 372.777C144.618 373.087 144.208 373.332 143.728 373.513C143.258 373.695 142.741 373.785 142.176 373.785ZM150.957 373.785C150.328 373.785 149.752 373.673 149.229 373.449C148.717 373.215 148.269 372.9 147.885 372.505C147.512 372.1 147.218 371.636 147.005 371.113C146.802 370.591 146.701 370.036 146.701 369.449C146.701 368.66 146.882 367.94 147.245 367.289C147.608 366.639 148.109 366.116 148.749 365.721C149.4 365.327 150.141 365.129 150.973 365.129C151.816 365.129 152.546 365.332 153.165 365.737C153.794 366.132 154.28 366.655 154.621 367.305C154.973 367.945 155.149 368.639 155.149 369.385C155.149 369.492 155.144 369.599 155.133 369.705C155.133 369.801 155.128 369.876 155.117 369.929H148.189C148.232 370.473 148.381 370.959 148.637 371.385C148.904 371.801 149.245 372.132 149.661 372.377C150.077 372.612 150.525 372.729 151.005 372.729C151.517 372.729 151.997 372.601 152.445 372.345C152.904 372.089 153.218 371.753 153.389 371.337L154.605 371.673C154.424 372.079 154.152 372.441 153.789 372.761C153.437 373.081 153.016 373.332 152.525 373.513C152.045 373.695 151.522 373.785 150.957 373.785ZM148.141 368.953H153.837C153.794 368.409 153.64 367.929 153.373 367.513C153.106 367.097 152.765 366.772 152.349 366.537C151.933 366.303 151.474 366.185 150.973 366.185C150.482 366.185 150.029 366.303 149.613 366.537C149.197 366.772 148.856 367.097 148.589 367.513C148.333 367.929 148.184 368.409 148.141 368.953ZM170.121 362.265V373.625H168.681V368.457H162.425V373.625H160.985V362.265H162.425V367.177H168.681V362.265H170.121ZM171.886 371.209C171.886 370.676 172.036 370.217 172.334 369.833C172.644 369.439 173.065 369.135 173.598 368.921C174.132 368.708 174.75 368.601 175.454 368.601C175.828 368.601 176.222 368.633 176.638 368.697C177.054 368.751 177.422 368.836 177.742 368.953V368.345C177.742 367.705 177.55 367.204 177.166 366.841C176.782 366.468 176.238 366.281 175.534 366.281C175.076 366.281 174.633 366.367 174.206 366.537C173.79 366.697 173.348 366.932 172.878 367.241L172.366 366.249C172.91 365.876 173.454 365.599 173.998 365.417C174.542 365.225 175.108 365.129 175.694 365.129C176.761 365.129 177.604 365.428 178.222 366.025C178.841 366.612 179.15 367.433 179.15 368.489V372.025C179.15 372.196 179.182 372.324 179.246 372.409C179.321 372.484 179.438 372.527 179.598 372.537V373.625C179.46 373.647 179.337 373.663 179.23 373.673C179.134 373.684 179.054 373.689 178.99 373.689C178.66 373.689 178.409 373.599 178.238 373.417C178.078 373.236 177.988 373.044 177.966 372.841L177.934 372.313C177.572 372.783 177.097 373.145 176.51 373.401C175.924 373.657 175.342 373.785 174.766 373.785C174.212 373.785 173.716 373.673 173.278 373.449C172.841 373.215 172.5 372.905 172.254 372.521C172.009 372.127 171.886 371.689 171.886 371.209ZM177.326 371.801C177.454 371.652 177.556 371.503 177.63 371.353C177.705 371.193 177.742 371.06 177.742 370.953V369.913C177.412 369.785 177.065 369.689 176.702 369.625C176.34 369.551 175.982 369.513 175.63 369.513C174.916 369.513 174.334 369.657 173.886 369.945C173.449 370.223 173.23 370.607 173.23 371.097C173.23 371.364 173.3 371.625 173.438 371.881C173.588 372.127 173.801 372.329 174.078 372.489C174.366 372.649 174.718 372.729 175.134 372.729C175.572 372.729 175.988 372.644 176.382 372.473C176.777 372.292 177.092 372.068 177.326 371.801ZM187.29 373.625L184.394 369.561L182.81 371.049V373.625H181.402V361.945H182.81V369.577L187.13 365.289H188.65L185.322 368.745L188.81 373.625H187.29ZM193.285 373.785C192.656 373.785 192.08 373.673 191.557 373.449C191.045 373.215 190.597 372.9 190.213 372.505C189.84 372.1 189.546 371.636 189.333 371.113C189.13 370.591 189.029 370.036 189.029 369.449C189.029 368.66 189.21 367.94 189.573 367.289C189.936 366.639 190.437 366.116 191.077 365.721C191.728 365.327 192.469 365.129 193.301 365.129C194.144 365.129 194.874 365.332 195.493 365.737C196.122 366.132 196.608 366.655 196.949 367.305C197.301 367.945 197.477 368.639 197.477 369.385C197.477 369.492 197.472 369.599 197.461 369.705C197.461 369.801 197.456 369.876 197.445 369.929H190.517C190.56 370.473 190.709 370.959 190.965 371.385C191.232 371.801 191.573 372.132 191.989 372.377C192.405 372.612 192.853 372.729 193.333 372.729C193.845 372.729 194.325 372.601 194.773 372.345C195.232 372.089 195.546 371.753 195.717 371.337L196.933 371.673C196.752 372.079 196.48 372.441 196.117 372.761C195.765 373.081 195.344 373.332 194.853 373.513C194.373 373.695 193.85 373.785 193.285 373.785ZM190.469 368.953H196.165C196.122 368.409 195.968 367.929 195.701 367.513C195.434 367.097 195.093 366.772 194.677 366.537C194.261 366.303 193.802 366.185 193.301 366.185C192.81 366.185 192.357 366.303 191.941 366.537C191.525 366.772 191.184 367.097 190.917 367.513C190.661 367.929 190.512 368.409 190.469 368.953ZM203.458 366.505C202.754 366.516 202.13 366.697 201.586 367.049C201.053 367.391 200.674 367.865 200.45 368.473V373.625H199.042V365.273H200.354V367.209C200.642 366.633 201.021 366.169 201.49 365.817C201.97 365.455 202.472 365.252 202.994 365.209C203.101 365.209 203.192 365.209 203.266 365.209C203.341 365.209 203.405 365.215 203.458 365.225V366.505ZM208.348 373.785C207.718 373.785 207.142 373.673 206.62 373.449C206.108 373.215 205.66 372.9 205.276 372.505C204.902 372.1 204.609 371.636 204.396 371.113C204.193 370.591 204.092 370.036 204.092 369.449C204.092 368.66 204.273 367.94 204.636 367.289C204.998 366.639 205.5 366.116 206.14 365.721C206.79 365.327 207.532 365.129 208.364 365.129C209.206 365.129 209.937 365.332 210.556 365.737C211.185 366.132 211.67 366.655 212.012 367.305C212.364 367.945 212.54 368.639 212.54 369.385C212.54 369.492 212.534 369.599 212.524 369.705C212.524 369.801 212.518 369.876 212.508 369.929H205.58C205.622 370.473 205.772 370.959 206.028 371.385C206.294 371.801 206.636 372.132 207.052 372.377C207.468 372.612 207.916 372.729 208.396 372.729C208.908 372.729 209.388 372.601 209.836 372.345C210.294 372.089 210.609 371.753 210.78 371.337L211.996 371.673C211.814 372.079 211.542 372.441 211.18 372.761C210.828 373.081 210.406 373.332 209.916 373.513C209.436 373.695 208.913 373.785 208.348 373.785ZM205.532 368.953H211.228C211.185 368.409 211.03 367.929 210.764 367.513C210.497 367.097 210.156 366.772 209.74 366.537C209.324 366.303 208.865 366.185 208.364 366.185C207.873 366.185 207.42 366.303 207.004 366.537C206.588 366.772 206.246 367.097 205.98 367.513C205.724 367.929 205.574 368.409 205.532 368.953ZM226.697 373.625H225.289V368.953C225.289 368.079 225.145 367.433 224.857 367.017C224.579 366.601 224.163 366.393 223.609 366.393C223.043 366.393 222.531 366.601 222.073 367.017C221.614 367.423 221.289 367.951 221.097 368.601V373.625H219.689V368.953C219.689 368.068 219.55 367.423 219.273 367.017C218.995 366.601 218.579 366.393 218.025 366.393C217.47 366.393 216.958 366.596 216.489 367.001C216.03 367.396 215.705 367.924 215.513 368.585V373.625H214.105V365.273H215.385V367.065C215.726 366.447 216.169 365.972 216.713 365.641C217.257 365.3 217.87 365.129 218.553 365.129C219.246 365.129 219.801 365.321 220.217 365.705C220.633 366.079 220.889 366.564 220.985 367.161C221.358 366.5 221.811 365.999 222.345 365.657C222.878 365.305 223.486 365.129 224.169 365.129C224.649 365.129 225.049 365.22 225.369 365.401C225.699 365.572 225.961 365.817 226.153 366.137C226.345 366.447 226.483 366.815 226.569 367.241C226.654 367.668 226.697 368.132 226.697 368.633V373.625ZM233.157 373.625V362.265H234.597V372.345H240.933V373.625H233.157ZM245.848 373.785C245.218 373.785 244.642 373.673 244.12 373.449C243.608 373.215 243.16 372.9 242.776 372.505C242.402 372.1 242.109 371.636 241.896 371.113C241.693 370.591 241.592 370.036 241.592 369.449C241.592 368.66 241.773 367.94 242.136 367.289C242.498 366.639 243 366.116 243.64 365.721C244.29 365.327 245.032 365.129 245.864 365.129C246.706 365.129 247.437 365.332 248.056 365.737C248.685 366.132 249.17 366.655 249.512 367.305C249.864 367.945 250.04 368.639 250.04 369.385C250.04 369.492 250.034 369.599 250.024 369.705C250.024 369.801 250.018 369.876 250.008 369.929H243.08C243.122 370.473 243.272 370.959 243.528 371.385C243.794 371.801 244.136 372.132 244.552 372.377C244.968 372.612 245.416 372.729 245.896 372.729C246.408 372.729 246.888 372.601 247.336 372.345C247.794 372.089 248.109 371.753 248.28 371.337L249.496 371.673C249.314 372.079 249.042 372.441 248.68 372.761C248.328 373.081 247.906 373.332 247.416 373.513C246.936 373.695 246.413 373.785 245.848 373.785ZM243.032 368.953H248.728C248.685 368.409 248.53 367.929 248.264 367.513C247.997 367.097 247.656 366.772 247.24 366.537C246.824 366.303 246.365 366.185 245.864 366.185C245.373 366.185 244.92 366.303 244.504 366.537C244.088 366.772 243.746 367.097 243.48 367.513C243.224 367.929 243.074 368.409 243.032 368.953ZM257.493 373.625L254.597 369.561L253.013 371.049V373.625H251.605V361.945H253.013V369.577L257.333 365.289H258.853L255.525 368.745L259.013 373.625H257.493ZM266.118 373.625L263.222 369.561L261.638 371.049V373.625H260.23V361.945H261.638V369.577L265.958 365.289H267.478L264.15 368.745L267.638 373.625H266.118ZM268.855 373.625V365.273H270.263V373.625H268.855ZM268.855 363.705V361.945H270.263V363.705H268.855ZM87.36 392.625V381.265H92.096C92.5973 381.265 93.056 381.372 93.472 381.585C93.888 381.788 94.2507 382.065 94.56 382.417C94.8693 382.759 95.1093 383.148 95.28 383.585C95.4507 384.012 95.536 384.449 95.536 384.897C95.536 385.516 95.3973 386.108 95.12 386.673C94.8427 387.228 94.4533 387.681 93.952 388.033C93.4507 388.375 92.864 388.545 92.192 388.545H88.8V392.625H87.36ZM88.8 387.265H92.112C92.5067 387.265 92.848 387.159 93.136 386.945C93.4347 386.732 93.664 386.444 93.824 386.081C93.9947 385.719 94.08 385.324 94.08 384.897C94.08 384.449 93.984 384.049 93.792 383.697C93.6 383.335 93.3493 383.052 93.04 382.849C92.7307 382.647 92.3893 382.545 92.016 382.545H88.8V387.265ZM104.353 392.625H102.945V387.953C102.945 387.1 102.79 386.46 102.481 386.033C102.182 385.607 101.75 385.393 101.185 385.393C100.822 385.393 100.454 385.489 100.081 385.681C99.7181 385.873 99.3981 386.135 99.1208 386.465C98.8434 386.785 98.6408 387.159 98.5128 387.585V392.625H97.1048V380.945H98.5128V386.065C98.8434 385.468 99.2914 384.999 99.8568 384.657C100.433 384.305 101.051 384.129 101.713 384.129C102.214 384.129 102.63 384.22 102.961 384.401C103.302 384.572 103.574 384.817 103.777 385.137C103.979 385.457 104.123 385.831 104.209 386.257C104.305 386.673 104.353 387.132 104.353 387.633V392.625ZM105.886 390.209C105.886 389.676 106.036 389.217 106.334 388.833C106.644 388.439 107.065 388.135 107.598 387.921C108.132 387.708 108.75 387.601 109.454 387.601C109.828 387.601 110.222 387.633 110.638 387.697C111.054 387.751 111.422 387.836 111.742 387.953V387.345C111.742 386.705 111.55 386.204 111.166 385.841C110.782 385.468 110.238 385.281 109.534 385.281C109.076 385.281 108.633 385.367 108.206 385.537C107.79 385.697 107.348 385.932 106.878 386.241L106.366 385.249C106.91 384.876 107.454 384.599 107.998 384.417C108.542 384.225 109.108 384.129 109.694 384.129C110.761 384.129 111.604 384.428 112.222 385.025C112.841 385.612 113.15 386.433 113.15 387.489V391.025C113.15 391.196 113.182 391.324 113.246 391.409C113.321 391.484 113.438 391.527 113.598 391.537V392.625C113.46 392.647 113.337 392.663 113.23 392.673C113.134 392.684 113.054 392.689 112.99 392.689C112.66 392.689 112.409 392.599 112.238 392.417C112.078 392.236 111.988 392.044 111.966 391.841L111.934 391.313C111.572 391.783 111.097 392.145 110.51 392.401C109.924 392.657 109.342 392.785 108.766 392.785C108.212 392.785 107.716 392.673 107.278 392.449C106.841 392.215 106.5 391.905 106.254 391.521C106.009 391.127 105.886 390.689 105.886 390.209ZM111.326 390.801C111.454 390.652 111.556 390.503 111.63 390.353C111.705 390.193 111.742 390.06 111.742 389.953V388.913C111.412 388.785 111.065 388.689 110.702 388.625C110.34 388.551 109.982 388.513 109.63 388.513C108.916 388.513 108.334 388.657 107.886 388.945C107.449 389.223 107.23 389.607 107.23 390.097C107.23 390.364 107.3 390.625 107.438 390.881C107.588 391.127 107.801 391.329 108.078 391.489C108.366 391.649 108.718 391.729 109.134 391.729C109.572 391.729 109.988 391.644 110.382 391.473C110.777 391.292 111.092 391.068 111.326 390.801ZM118.266 392.785C117.572 392.785 116.922 392.673 116.314 392.449C115.706 392.215 115.183 391.868 114.746 391.409L115.29 390.417C115.77 390.865 116.25 391.185 116.73 391.377C117.21 391.569 117.7 391.665 118.202 391.665C118.778 391.665 119.247 391.559 119.61 391.345C119.972 391.121 120.154 390.796 120.154 390.369C120.154 390.06 120.058 389.831 119.866 389.681C119.684 389.532 119.423 389.409 119.082 389.313C118.74 389.207 118.335 389.089 117.866 388.961C117.29 388.791 116.804 388.609 116.41 388.417C116.015 388.225 115.716 387.985 115.514 387.697C115.311 387.409 115.21 387.047 115.21 386.609C115.21 386.076 115.348 385.628 115.626 385.265C115.903 384.892 116.282 384.609 116.762 384.417C117.252 384.225 117.807 384.129 118.426 384.129C119.044 384.129 119.604 384.225 120.106 384.417C120.607 384.609 121.039 384.892 121.402 385.265L120.762 386.241C120.431 385.9 120.068 385.649 119.674 385.489C119.279 385.319 118.836 385.233 118.346 385.233C118.058 385.233 117.775 385.271 117.498 385.345C117.22 385.409 116.991 385.532 116.81 385.713C116.628 385.884 116.538 386.129 116.538 386.449C116.538 386.716 116.607 386.929 116.746 387.089C116.895 387.239 117.108 387.367 117.386 387.473C117.674 387.58 118.02 387.697 118.426 387.825C119.055 388.007 119.599 388.188 120.058 388.369C120.527 388.551 120.89 388.785 121.146 389.073C121.402 389.361 121.53 389.761 121.53 390.273C121.53 391.063 121.231 391.681 120.634 392.129C120.036 392.567 119.247 392.785 118.266 392.785ZM126.91 392.785C126.281 392.785 125.705 392.673 125.182 392.449C124.67 392.215 124.222 391.9 123.838 391.505C123.465 391.1 123.171 390.636 122.958 390.113C122.755 389.591 122.654 389.036 122.654 388.449C122.654 387.66 122.835 386.94 123.198 386.289C123.561 385.639 124.062 385.116 124.702 384.721C125.353 384.327 126.094 384.129 126.926 384.129C127.769 384.129 128.499 384.332 129.118 384.737C129.747 385.132 130.233 385.655 130.574 386.305C130.926 386.945 131.102 387.639 131.102 388.385C131.102 388.492 131.097 388.599 131.086 388.705C131.086 388.801 131.081 388.876 131.07 388.929H124.142C124.185 389.473 124.334 389.959 124.59 390.385C124.857 390.801 125.198 391.132 125.614 391.377C126.03 391.612 126.478 391.729 126.958 391.729C127.47 391.729 127.95 391.601 128.398 391.345C128.857 391.089 129.171 390.753 129.342 390.337L130.558 390.673C130.377 391.079 130.105 391.441 129.742 391.761C129.39 392.081 128.969 392.332 128.478 392.513C127.998 392.695 127.475 392.785 126.91 392.785ZM124.094 387.953H129.79C129.747 387.409 129.593 386.929 129.326 386.513C129.059 386.097 128.718 385.772 128.302 385.537C127.886 385.303 127.427 385.185 126.926 385.185C126.435 385.185 125.982 385.303 125.566 385.537C125.15 385.772 124.809 386.097 124.542 386.513C124.286 386.929 124.137 387.409 124.094 387.953ZM142.394 391.345V392.625H136.65V391.345H138.922V385.105C138.826 385.233 138.677 385.372 138.474 385.521C138.271 385.66 138.042 385.793 137.786 385.921C137.53 386.049 137.274 386.156 137.018 386.241C136.762 386.316 136.527 386.353 136.314 386.353V385.009C136.549 385.009 136.805 384.945 137.082 384.817C137.37 384.679 137.647 384.519 137.914 384.337C138.181 384.156 138.405 383.985 138.586 383.825C138.778 383.665 138.89 383.553 138.922 383.489H140.362V391.345H142.394ZM143.965 393.921L144.285 392.497H143.805V390.833H145.133V392.497L144.653 393.921H143.965ZM151.563 392.625V381.265H153.003V391.345H159.339V392.625H151.563ZM160.027 390.209C160.027 389.676 160.176 389.217 160.475 388.833C160.784 388.439 161.206 388.135 161.739 387.921C162.272 387.708 162.891 387.601 163.595 387.601C163.968 387.601 164.363 387.633 164.779 387.697C165.195 387.751 165.563 387.836 165.883 387.953V387.345C165.883 386.705 165.691 386.204 165.307 385.841C164.923 385.468 164.379 385.281 163.675 385.281C163.216 385.281 162.774 385.367 162.347 385.537C161.931 385.697 161.488 385.932 161.019 386.241L160.507 385.249C161.051 384.876 161.595 384.599 162.139 384.417C162.683 384.225 163.248 384.129 163.835 384.129C164.902 384.129 165.744 384.428 166.363 385.025C166.982 385.612 167.291 386.433 167.291 387.489V391.025C167.291 391.196 167.323 391.324 167.387 391.409C167.462 391.484 167.579 391.527 167.739 391.537V392.625C167.6 392.647 167.478 392.663 167.371 392.673C167.275 392.684 167.195 392.689 167.131 392.689C166.8 392.689 166.55 392.599 166.379 392.417C166.219 392.236 166.128 392.044 166.107 391.841L166.075 391.313C165.712 391.783 165.238 392.145 164.651 392.401C164.064 392.657 163.483 392.785 162.907 392.785C162.352 392.785 161.856 392.673 161.419 392.449C160.982 392.215 160.64 391.905 160.395 391.521C160.15 391.127 160.027 390.689 160.027 390.209ZM165.467 390.801C165.595 390.652 165.696 390.503 165.771 390.353C165.846 390.193 165.883 390.06 165.883 389.953V388.913C165.552 388.785 165.206 388.689 164.843 388.625C164.48 388.551 164.123 388.513 163.771 388.513C163.056 388.513 162.475 388.657 162.027 388.945C161.59 389.223 161.371 389.607 161.371 390.097C161.371 390.364 161.44 390.625 161.579 390.881C161.728 391.127 161.942 391.329 162.219 391.489C162.507 391.649 162.859 391.729 163.275 391.729C163.712 391.729 164.128 391.644 164.523 391.473C164.918 391.292 165.232 391.068 165.467 390.801ZM172.87 392.721C172.305 392.721 171.782 392.609 171.302 392.385C170.833 392.151 170.428 391.836 170.086 391.441C169.745 391.036 169.478 390.577 169.286 390.065C169.105 389.553 169.014 389.02 169.014 388.465C169.014 387.879 169.105 387.324 169.286 386.801C169.478 386.279 169.745 385.82 170.086 385.425C170.438 385.02 170.849 384.705 171.318 384.481C171.788 384.247 172.31 384.129 172.886 384.129C173.58 384.129 174.182 384.3 174.694 384.641C175.217 384.983 175.654 385.415 176.006 385.937V384.273H177.254V392.529C177.254 393.319 177.062 393.985 176.678 394.529C176.305 395.073 175.793 395.484 175.142 395.761C174.502 396.049 173.788 396.193 172.998 396.193C172.06 396.193 171.292 396.028 170.694 395.697C170.097 395.367 169.601 394.919 169.206 394.353L170.022 393.633C170.353 394.124 170.78 394.492 171.302 394.737C171.836 394.983 172.401 395.105 172.998 395.105C173.51 395.105 173.98 395.009 174.406 394.817C174.844 394.636 175.19 394.353 175.446 393.969C175.713 393.585 175.846 393.105 175.846 392.529V391.057C175.537 391.569 175.11 391.975 174.566 392.273C174.033 392.572 173.468 392.721 172.87 392.721ZM173.302 391.569C173.601 391.569 173.889 391.516 174.166 391.409C174.444 391.303 174.7 391.164 174.934 390.993C175.169 390.812 175.366 390.609 175.526 390.385C175.686 390.161 175.793 389.932 175.846 389.697V387.297C175.697 386.913 175.484 386.577 175.206 386.289C174.929 385.991 174.614 385.761 174.262 385.601C173.91 385.431 173.548 385.345 173.174 385.345C172.748 385.345 172.364 385.436 172.022 385.617C171.692 385.799 171.409 386.044 171.174 386.353C170.94 386.652 170.758 386.988 170.63 387.361C170.502 387.735 170.438 388.113 170.438 388.497C170.438 388.913 170.513 389.308 170.662 389.681C170.812 390.044 171.014 390.369 171.27 390.657C171.526 390.945 171.83 391.169 172.182 391.329C172.534 391.489 172.908 391.569 173.302 391.569ZM183.175 392.785C182.545 392.785 181.975 392.673 181.463 392.449C180.951 392.215 180.508 391.9 180.135 391.505C179.761 391.1 179.473 390.636 179.271 390.113C179.068 389.591 178.967 389.041 178.967 388.465C178.967 387.879 179.068 387.324 179.271 386.801C179.473 386.279 179.761 385.82 180.135 385.425C180.508 385.02 180.951 384.705 181.463 384.481C181.985 384.247 182.556 384.129 183.175 384.129C183.804 384.129 184.375 384.247 184.887 384.481C185.399 384.705 185.841 385.02 186.215 385.425C186.599 385.82 186.892 386.279 187.095 386.801C187.297 387.324 187.399 387.879 187.399 388.465C187.399 389.041 187.297 389.591 187.095 390.113C186.892 390.636 186.604 391.1 186.231 391.505C185.857 391.9 185.409 392.215 184.887 392.449C184.375 392.673 183.804 392.785 183.175 392.785ZM180.407 388.481C180.407 389.057 180.529 389.58 180.775 390.049C181.031 390.519 181.367 390.892 181.783 391.169C182.199 391.436 182.663 391.569 183.175 391.569C183.687 391.569 184.151 391.431 184.567 391.153C184.993 390.876 185.329 390.503 185.575 390.033C185.831 389.553 185.959 389.025 185.959 388.449C185.959 387.873 185.831 387.351 185.575 386.881C185.329 386.412 184.993 386.039 184.567 385.761C184.151 385.484 183.687 385.345 183.175 385.345C182.663 385.345 182.199 385.489 181.783 385.777C181.367 386.055 181.031 386.428 180.775 386.897C180.529 387.367 180.407 387.895 180.407 388.481ZM191.969 392.785C191.275 392.785 190.625 392.673 190.017 392.449C189.409 392.215 188.886 391.868 188.449 391.409L188.993 390.417C189.473 390.865 189.953 391.185 190.433 391.377C190.913 391.569 191.403 391.665 191.905 391.665C192.481 391.665 192.95 391.559 193.313 391.345C193.675 391.121 193.857 390.796 193.857 390.369C193.857 390.06 193.761 389.831 193.569 389.681C193.387 389.532 193.126 389.409 192.785 389.313C192.443 389.207 192.038 389.089 191.569 388.961C190.993 388.791 190.507 388.609 190.113 388.417C189.718 388.225 189.419 387.985 189.217 387.697C189.014 387.409 188.913 387.047 188.913 386.609C188.913 386.076 189.051 385.628 189.329 385.265C189.606 384.892 189.985 384.609 190.465 384.417C190.955 384.225 191.51 384.129 192.129 384.129C192.747 384.129 193.307 384.225 193.809 384.417C194.31 384.609 194.742 384.892 195.105 385.265L194.465 386.241C194.134 385.9 193.771 385.649 193.377 385.489C192.982 385.319 192.539 385.233 192.049 385.233C191.761 385.233 191.478 385.271 191.201 385.345C190.923 385.409 190.694 385.532 190.513 385.713C190.331 385.884 190.241 386.129 190.241 386.449C190.241 386.716 190.31 386.929 190.449 387.089C190.598 387.239 190.811 387.367 191.089 387.473C191.377 387.58 191.723 387.697 192.129 387.825C192.758 388.007 193.302 388.188 193.761 388.369C194.23 388.551 194.593 388.785 194.849 389.073C195.105 389.361 195.233 389.761 195.233 390.273C195.233 391.063 194.934 391.681 194.337 392.129C193.739 392.567 192.95 392.785 191.969 392.785ZM196.805 392.625V390.833H197.989V392.625H196.805Z" fill="white"/>
</svg>
